<svg width="94" height="99" viewBox="0 0 94 99" fill="none" xmlns="http://www.w3.org/2000/svg">
<path d="M82.3648 61.3967C86.3778 60.5196 90.8008 62.3394 92.706 66.042C93.9778 68.5139 93.8388 71.4983 92.6445 73.9566C92.9518 75.4076 92.7565 76.9967 91.9388 78.2555C89.6497 81.7754 84.6617 81.9888 81.168 80.3822C77.168 78.5435 74.5914 74.3623 75.0732 69.9472C75.5142 65.9155 78.2997 62.2847 82.3648 61.3967Z" fill="#EFDCC2"/>
<path d="M49.4503 13.6184C54.4916 15.4784 57.8929 19.9931 58.6436 24.9117C60.0969 27.9384 60.3983 31.6464 59.2169 35.0398C56.3996 43.1198 46.9023 46.7997 39.0743 44.0917C30.989 41.2944 26.9449 32.1784 29.2956 24.1171C31.7289 15.7717 41.1423 10.5557 49.4503 13.6184Z" fill="#EFDCC2"/>
<path d="M36.1815 63.4547C36.8681 62.9416 37.7135 62.6203 38.6935 62.5801C39.8028 62.5332 40.7975 62.8495 41.6308 63.3905C42.2681 63.2119 42.9548 63.2536 43.5028 63.6629C45.9615 65.5025 46.5895 68.8733 44.8788 71.4932C42.9348 74.4665 38.8001 74.7359 36.3081 72.3479C34.2521 71.0999 32.8575 68.6905 33.6361 66.1239C34.0055 64.9025 34.9935 63.8843 36.1815 63.4547Z" fill="#EFDCC2"/>
<path d="M7.09562 38.0053C8.06629 38.3199 8.93696 39.1066 9.24896 40.0919C10.4276 41.2933 10.7729 43.4093 9.80628 44.8733C9.14495 45.8746 8.0183 46.3733 6.83696 46.0813C5.60363 45.7773 4.51163 44.9586 3.84896 43.8746C3.76629 43.7386 3.70496 43.5999 3.63563 43.4573C3.3343 42.6786 3.25163 42.4959 3.38496 42.9093C3.48363 43.2066 3.44629 43.1359 3.27562 42.6959C2.77029 41.4999 3.10495 40.5346 3.59295 39.4319C4.11962 38.2386 5.90362 37.6199 7.09562 38.0053Z" fill="#EFDCC2"/>
</svg>
