<svg width="154" height="42" viewBox="0 0 154 42" fill="none" xmlns="http://www.w3.org/2000/svg">
<path d="M1.8073 23.2993L1.27759 23.5532C1.23025 23.5759 1.23041 23.6433 1.27792 23.6658L2.6512 24.316C2.66859 24.3243 2.68895 24.324 2.706 24.3152L3.28057 24.0227C3.32758 23.9989 3.32543 23.9308 3.27693 23.91L1.85895 23.2983C1.8424 23.2912 1.82353 23.2915 1.8073 23.2993Z" fill="white"/>
<path d="M9.18402 26.493L8.4507 26.962C8.40932 26.9883 8.41329 27.0499 8.45749 27.0708L11.9038 28.7028C11.9245 28.7125 11.949 28.7102 11.9675 28.6965L12.7614 28.1082C12.8 28.0797 12.793 28.0199 12.749 28.0009L9.24229 26.4882C9.22326 26.4801 9.2014 26.482 9.18402 26.493Z" fill="white"/>
<path d="M4.78089 24.5886L4.15782 24.9236C4.11279 24.9478 4.11445 25.0128 4.16063 25.0347L6.24754 26.0231C6.26624 26.0319 6.28793 26.0309 6.3058 26.0205L6.98467 25.6214C7.02853 25.5955 7.02456 25.5306 6.97771 25.5104L4.83502 24.5863C4.81764 24.5786 4.79761 24.5796 4.78089 24.5886Z" fill="white"/>
<path d="M16.4159 29.6239L15.5763 30.3481C15.5422 30.3774 15.5496 30.4322 15.5904 30.4516L22.1505 33.5582C22.176 33.5703 22.2063 33.5638 22.2245 33.5423L23.0754 32.5463C23.1025 32.5143 23.0911 32.4651 23.0527 32.4486L16.4813 29.6138C16.4594 29.6044 16.4339 29.6083 16.4159 29.6239Z" fill="white"/>
<path d="M0.046875 22.5211C0.0614421 22.7178 0.0791544 22.9148 0.0993497 23.1121L0.196022 23.158L0.837307 22.8621L0.046875 22.5211Z" fill="white"/>
<path d="M29.731 37.1419L32.4146 38.4127C32.5149 38.4602 32.6338 38.4517 32.7258 38.3897C33.1023 38.1352 33.4696 37.8692 33.8275 37.5921C34.014 37.4476 33.9733 37.1533 33.7566 37.0598L30.5567 35.6795C30.5275 35.6669 30.4936 35.6782 30.4779 35.7057L29.7036 37.0545C29.6854 37.0861 29.6982 37.1263 29.731 37.1419Z" fill="white"/>
<path d="M23.3797 41.8564C23.6616 41.8241 23.9415 41.786 24.2195 41.7427C24.5022 41.6985 24.5807 41.3272 24.3403 41.1717L0.554688 25.773C2.93674 36.0211 12.6747 43.079 23.3797 41.8564Z" fill="white"/>
<path d="M0.0147326 20.982H0C0 21.0103 0.00115874 21.0388 0.00115874 21.0671L37.9328 33.3806C37.9586 33.3455 37.9841 33.3104 38.0094 33.2752C38.028 33.2497 38.0434 33.2234 38.0614 33.1977C41.6716 28.0788 37.9429 20.982 31.6524 20.982H0.0147326Z" fill="white"/>
<path d="M5.80595 6.51848C3.65283 8.77953 2.0099 11.5094 1.03125 14.5143L20.9961 16.072L40.9665 14.5143C39.9793 11.4667 38.3236 8.75254 36.1901 6.51848L20.9965 5.27249L5.80595 6.51848Z" fill="#AFAFAF"/>
<path d="M1.02849 14.4926C0.358564 16.5496 -0.0026341 18.7338 1.44625e-05 20.9852H31.6524C37.9429 20.9852 41.6716 28.0821 38.0614 33.2009C40.5487 29.726 41.9924 25.4888 41.9871 20.9852C41.9861 20.198 41.9455 19.4032 41.8542 18.6024C41.6914 17.1788 41.389 15.8051 40.9637 14.4926H1.02849Z" fill="#C8C8C8"/>
<path d="M18.6122 0.137397C13.5271 0.718261 9.07799 3.07234 5.80469 6.50952H36.1889C32.3281 2.46681 26.8999 0.000170708 21.0197 5.24521e-06C20.2243 -0.000160217 19.4213 0.0450287 18.6122 0.137397Z" fill="#C8C8C8"/>
<path d="M64.0039 13.3371C62.24 13.3371 61.0806 14.1689 60.8034 15.7564L59.9213 20.7463C59.644 22.3341 60.501 23.1657 62.2653 23.1657C64.0039 23.1657 65.1633 22.3341 65.4404 20.7463L66.3226 15.7564C66.5998 14.1689 65.7429 13.3371 64.0039 13.3371ZM64.6844 8.92687C69.6492 8.92687 71.968 11.9259 71.2118 16.2857L70.4305 20.8472C69.6492 25.1818 66.5495 27.5759 61.5594 27.5759C56.595 27.5759 54.2762 24.6526 55.0071 20.2929L55.8137 15.7314C56.5697 11.3965 59.6947 8.92687 64.6844 8.92687Z" fill="white"/>
<path d="M88.2183 10.3624L85.4211 26.1384C85.2949 26.9198 84.9672 27.197 84.1607 27.197H81.3885C80.8594 27.197 80.6325 27.0457 80.4562 26.693L77.6586 20.7203C76.8776 19.0317 76.6253 17.7968 76.3482 15.5288H76.1464C76.2726 17.9481 76.3229 19.2333 75.8443 22.0307L75.1133 26.1384C74.9622 26.9198 74.6598 27.197 73.8531 27.197H71.207C70.4007 27.197 70.1738 26.9198 70.3252 26.1384L73.0971 10.3624C73.2486 9.58107 73.551 9.3038 74.3573 9.3038H77.2304C77.7847 9.3038 78.0365 9.4551 78.2133 9.80802L81.1868 16.2596C81.9177 17.8221 82.1446 19.183 82.4972 20.8714H82.699C82.3716 18.2757 82.2454 17.0661 82.699 14.4955L83.43 10.3624C83.5558 9.58107 83.8582 9.3038 84.6651 9.3038H87.3111C88.1175 9.3038 88.3444 9.58107 88.2183 10.3624Z" fill="white"/>
<path d="M90.7869 9.28427C89.9808 9.28427 89.6782 9.56154 89.5267 10.3427L86.755 26.1189C86.6033 26.9002 86.8305 27.1775 87.6366 27.1775H93.8364C98.8261 27.1775 101.926 24.8588 102.707 20.499L103.363 16.7188C104.144 12.3588 101.901 9.28427 96.9111 9.28427H90.7869ZM93.9372 13.6946H95.9784C98.0198 13.6946 98.7507 14.6273 98.4232 16.4164L97.7929 20.0454C97.4654 21.8348 96.4322 22.7671 94.3908 22.7671H92.3242L93.9372 13.6946Z" fill="#959595"/>
<path d="M127.228 10.3175L120.575 26.2954C120.272 27.0262 119.844 27.1775 119.113 27.1775H115.988C115.282 27.1775 114.879 27.001 114.829 26.3458L114.526 20.4738C114.476 18.8862 114.602 17.3742 114.854 15.9376H114.627C114.325 17.3742 113.921 18.8357 113.291 20.4738L110.923 26.2954C110.595 27.0262 110.166 27.1775 109.435 27.1775H106.411C105.706 27.1775 105.302 27.0262 105.252 26.3458L104.244 10.3175C104.194 9.61186 104.32 9.28427 105.101 9.28427H108.15C109.057 9.28427 109.385 9.43557 109.435 10.2169L109.41 16.8196C109.385 18.1302 109.083 20.5746 108.957 21.2803H109.133C109.284 20.5241 109.864 18.1805 110.393 16.8196L113.115 10.2169C113.443 9.41041 113.896 9.28427 114.677 9.28427H117.374C118.18 9.28427 118.584 9.43557 118.634 10.2169L118.987 16.8196C119.062 18.2561 118.811 20.5241 118.71 21.2803H118.911C119.037 20.5746 119.617 18.2056 120.046 16.8196L122.288 10.2169C122.566 9.43557 122.994 9.28427 123.876 9.28427H126.724C127.505 9.28427 127.53 9.61186 127.228 10.3175Z" fill="white"/>
<path d="M132.417 13.8711H132.19C132.19 13.8711 131.862 15.6857 131.056 17.3743L129.619 20.348H132.744L132.341 17.3993C132.14 15.6857 132.417 13.8711 132.417 13.8711ZM137.759 27.1775H135.138C133.853 27.1775 133.525 26.9004 133.45 26.1191L133.198 24.3046H127.729L126.847 26.1191C126.469 26.9004 126.091 27.1775 124.831 27.1775H122.059C121.278 27.1775 121.202 26.8247 121.58 26.1444L130.199 10.1666C130.577 9.43573 130.93 9.28443 131.661 9.28443H134.508C135.239 9.28443 135.567 9.46089 135.693 10.1162L138.692 26.1444C138.818 26.8247 138.541 27.1775 137.759 27.1775Z" fill="white"/>
<path d="M153.354 10.3429L145.793 20.247L144.785 26.1189C144.634 26.9002 144.306 27.1775 143.525 27.1775H140.652C139.871 27.1775 139.644 26.9002 139.795 26.1189L140.803 20.247L136.771 10.3429C136.519 9.76316 136.695 9.28427 137.477 9.28427H140.4C141.66 9.28427 142.013 9.33476 142.341 10.2169L144.13 15.3579L147.835 10.2169C148.44 9.33476 148.818 9.28427 150.053 9.28427H153.001C153.782 9.28427 153.807 9.76316 153.354 10.3429Z" fill="white"/>
<path d="M57.3295 28.7916C58.114 28.7916 58.4977 29.0686 58.6851 29.6743C58.7151 29.7668 58.674 29.836 58.5687 29.8762L58.3072 29.986C58.1895 30.032 58.1569 30.0204 58.1243 29.911C57.9869 29.5127 57.7424 29.3283 57.2349 29.3283C56.5946 29.3283 56.2329 29.5475 56.1566 29.9799C56.1026 30.2859 56.2597 30.4415 56.533 30.5281C56.7341 30.5973 56.8753 30.6145 57.1471 30.6433C57.4688 30.6839 57.6551 30.7067 57.9183 30.8165C58.0524 30.8742 58.1499 30.9433 58.2231 31.0186C58.363 31.1742 58.4537 31.4452 58.3896 31.8085C58.2522 32.5875 57.5921 33.0603 56.5709 33.0603C55.723 33.0603 55.3118 32.7431 55.1701 32.074C55.1491 31.9643 55.1802 31.9183 55.3027 31.8779L55.5547 31.7913C55.6596 31.7508 55.7076 31.7741 55.7344 31.8835C55.8485 32.3162 56.1561 32.5354 56.6636 32.5354C57.3557 32.5354 57.7437 32.299 57.8281 31.8201C57.8698 31.5836 57.7944 31.4222 57.5972 31.33C57.3989 31.2436 57.2368 31.2144 56.9208 31.1742C56.626 31.1452 56.4916 31.1222 56.2329 31.053C56.0994 31.0242 55.998 30.978 55.9207 30.9261C55.6806 30.7817 55.4709 30.4991 55.5793 30.0146C55.7096 29.2763 56.3545 28.7916 57.3295 28.7916Z" fill="white"/>
<path d="M62.4181 30.2684C62.5268 29.6513 62.206 29.3108 61.5313 29.3108C60.8564 29.3108 60.4156 29.6513 60.3067 30.2684L60.0747 31.5837C59.9658 32.201 60.2868 32.5412 60.9617 32.5412C61.6364 32.5412 62.0772 32.201 62.1861 31.5837L62.4181 30.2684ZM59.7471 30.2684C59.9099 29.3455 60.5902 28.7916 61.6228 28.7916C62.6553 28.7916 63.1403 29.3455 62.9776 30.2684L62.7457 31.5837C62.5829 32.5068 61.9026 33.0603 60.8701 33.0603C59.8375 33.0603 59.3525 32.5068 59.5152 31.5837L59.7471 30.2684Z" fill="white"/>
<path d="M64.9405 28.8749C65.056 28.8749 65.0893 28.9152 65.0699 29.0249L64.4657 32.4512H66.277C66.3924 32.4512 66.4256 32.4917 66.4063 32.6011L66.3677 32.8205C66.3483 32.9299 66.3008 32.9705 66.1855 32.9705H63.9646C63.855 32.9705 63.8218 32.9299 63.8411 32.8205L64.5104 29.0249C64.5298 28.9152 64.5771 28.8749 64.6869 28.8749H64.9405Z" fill="white"/>
<path d="M68.0929 31.5778C67.9861 32.1835 68.2748 32.541 68.9439 32.541C69.6132 32.541 70.0282 32.1835 70.1349 31.5778L70.5844 29.0284C70.6037 28.9184 70.6512 28.8784 70.7666 28.8784H71.0204C71.13 28.8784 71.1632 28.9184 71.1439 29.0284L70.6954 31.572C70.5326 32.4952 69.885 33.0603 68.8524 33.0603C67.8315 33.0603 67.3773 32.4952 67.5402 31.572L67.9886 29.0284C68.008 28.9184 68.0497 28.8784 68.1651 28.8784H68.4188C68.5342 28.8784 68.5619 28.9184 68.5425 29.0284L68.0929 31.5778Z" fill="white"/>
<path d="M75.1034 28.8749C75.213 28.8749 75.2462 28.9152 75.2269 29.0249L75.1883 29.2441C75.1689 29.3535 75.1214 29.3941 75.0118 29.3941H73.9216L73.3176 32.8205C73.2982 32.9299 73.2565 32.9705 73.1411 32.9705H72.8874C72.772 32.9705 72.7445 32.9299 72.7637 32.8205L73.3679 29.3941H72.2777C72.1623 29.3941 72.1348 29.3535 72.154 29.2441L72.1928 29.0249C72.2121 28.9152 72.2539 28.8749 72.3691 28.8749H75.1034Z" fill="white"/>
<path d="M76.3151 29.0249C76.3345 28.9152 76.382 28.8749 76.4916 28.8749H76.7453C76.8607 28.8749 76.894 28.9152 76.8746 29.0249L76.2053 32.8205C76.186 32.9299 76.1386 32.9705 76.0233 32.9705H75.7693C75.6597 32.9705 75.6265 32.9299 75.6458 32.8205L76.3151 29.0249Z" fill="white"/>
<path d="M80.629 30.2684C80.7378 29.6513 80.4171 29.3108 79.7422 29.3108C79.0673 29.3108 78.6264 29.6513 78.5176 30.2684L78.2857 31.5837C78.1768 32.201 78.4977 32.5412 79.1726 32.5412C79.8475 32.5412 80.2882 32.201 80.3971 31.5837L80.629 30.2684ZM77.9581 30.2684C78.1208 29.3455 78.8012 28.7916 79.8338 28.7916C80.8664 28.7916 81.3511 29.3455 81.1883 30.2684L80.9564 31.5837C80.7937 32.5068 80.1137 33.0603 79.0811 33.0603C78.0485 33.0603 77.5635 32.5068 77.7262 31.5837L77.9581 30.2684Z" fill="white"/>
<path d="M85.7414 28.8749C85.8511 28.8749 85.8842 28.9152 85.8649 29.0249L85.1956 32.8205C85.1764 32.9299 85.1291 32.9705 85.0193 32.9705H84.7656C84.6964 32.9705 84.6484 32.9474 84.623 32.8955L83.4012 30.5017C83.3332 30.3631 83.2668 30.1842 83.2027 29.9592L83.0905 29.6132H83.0617C83.0607 29.619 83.0546 29.7515 83.0433 30.0112C83.0264 30.2706 83.0041 30.4955 82.9705 30.6861L82.5942 32.8205C82.5749 32.9299 82.5275 32.9705 82.412 32.9705H82.1756C82.0658 32.9705 82.0327 32.9299 82.0521 32.8205L82.7214 29.0249C82.7406 28.9152 82.7879 28.8749 82.8976 28.8749H83.1514C83.2206 28.8749 83.2686 28.898 83.2881 28.9499L84.4941 31.3032C84.5705 31.4593 84.6475 31.6437 84.7177 31.8687C84.7874 32.0936 84.8238 32.2148 84.8275 32.2264H84.8563C84.8582 32.2148 84.8655 32.0764 84.8836 31.8109C84.9003 31.5515 84.9248 31.3149 84.9604 31.113L85.3285 29.0249C85.3479 28.9152 85.3898 28.8749 85.505 28.8749H85.7414Z" fill="white"/>
<path d="M88.7359 28.7916C89.5202 28.7916 89.9041 29.0686 90.0914 29.6743C90.1214 29.7668 90.0802 29.836 89.9751 29.8762L89.7135 29.986C89.5957 30.032 89.5632 30.0204 89.5306 29.911C89.3931 29.5127 89.1489 29.3283 88.6412 29.3283C88.0009 29.3283 87.6392 29.5475 87.5631 29.9799C87.5091 30.2859 87.666 30.4415 87.9393 30.5281C88.1404 30.5973 88.2816 30.6145 88.5536 30.6433C88.8751 30.6839 89.0615 30.7067 89.3249 30.8165C89.4589 30.8742 89.5563 30.9433 89.6294 31.0186C89.7691 31.1742 89.8599 31.4452 89.7958 31.8085C89.6586 32.5875 88.9986 33.0603 87.9774 33.0603C87.1294 33.0603 86.7182 32.7431 86.5763 32.074C86.5554 31.9643 86.5866 31.9183 86.7092 31.8779L86.961 31.7913C87.066 31.7508 87.114 31.7741 87.1409 31.8835C87.2548 32.3162 87.5624 32.5354 88.0699 32.5354C88.762 32.5354 89.15 32.299 89.2345 31.8201C89.2762 31.5836 89.2005 31.4222 89.0034 31.33C88.8054 31.2436 88.643 31.2144 88.3272 31.1742C88.0324 31.1452 87.8979 31.1222 87.639 31.053C87.5056 31.0242 87.4043 30.978 87.327 30.9261C87.087 30.7817 86.8774 30.4991 86.9857 30.0146C87.1159 29.2763 87.761 28.7916 88.7359 28.7916Z" fill="white"/>
<path d="M94.6818 30.9632C95.1837 30.9632 95.5289 30.6746 95.6153 30.1843C95.7017 29.6942 95.4603 29.3942 94.9584 29.3942H93.8796L93.603 30.9632H94.6818ZM95.102 28.8751C95.9154 28.8751 96.3413 29.3709 96.198 30.1843C96.0554 30.992 95.4671 31.4823 94.6423 31.4823H93.5115L93.2754 32.8206C93.2562 32.9301 93.2089 32.9705 93.0934 32.9705H92.8396C92.7298 32.9705 92.6969 32.9301 92.7161 32.8206L93.3854 29.0251C93.4047 28.9153 93.4521 28.8751 93.5618 28.8751H95.102Z" fill="white"/>
<path d="M99.2345 29.3942H98.075L97.8258 30.8074H98.9854C99.441 30.8074 99.7465 30.5477 99.8248 30.1036C99.9051 29.6478 99.6903 29.3942 99.2345 29.3942ZM99.3781 28.8751C100.157 28.8751 100.545 29.325 100.408 30.1036C100.299 30.721 99.9147 31.1304 99.3569 31.2517C99.4507 31.3093 99.5294 31.4189 99.5884 31.5745L100.01 32.8149C100.044 32.9185 100.011 32.9705 99.902 32.9705H99.648C99.4578 32.9705 99.404 32.9476 99.3714 32.8379L99.0327 31.7822C98.9265 31.4361 98.7725 31.3267 98.3517 31.3267H97.7343L97.4708 32.8206C97.4516 32.9301 97.4042 32.9705 97.2887 32.9705H97.0351C96.9251 32.9705 96.8922 32.9301 96.9114 32.8206L97.5807 29.0251C97.6 28.9153 97.6474 28.8751 97.7571 28.8751H99.3781Z" fill="white"/>
<path d="M101.885 29.0249C101.905 28.9152 101.952 28.8749 102.062 28.8749H102.315C102.431 28.8749 102.464 28.9152 102.445 29.0249L101.775 32.8205C101.756 32.9299 101.709 32.9705 101.593 32.9705H101.34C101.23 32.9705 101.197 32.9299 101.216 32.8205L101.885 29.0249Z" fill="white"/>
<path d="M106.998 28.8749C107.108 28.8749 107.127 28.9266 107.07 29.0249L104.954 32.8435C104.91 32.9299 104.845 32.9705 104.747 32.9705H104.511C104.413 32.9705 104.357 32.9299 104.342 32.8491L103.574 29.0249C103.557 28.9266 103.601 28.8749 103.704 28.8749H103.929C104.114 28.8749 104.156 28.898 104.177 29.0074L104.692 31.7765C104.726 31.9784 104.738 32.3014 104.743 32.307H104.766C104.774 32.2956 104.899 31.9784 105.003 31.7821L106.484 29.0074C106.544 28.898 106.6 28.8749 106.785 28.8749H106.998Z" fill="white"/>
<path d="M109.194 29.9248C109.16 29.7228 109.158 29.5384 109.186 29.3823H109.151L109.131 29.4631C109.108 29.5613 109.038 29.7634 108.958 29.919L108.107 31.4417H109.503L109.194 29.9248ZM110.379 32.8205C110.397 32.9185 110.353 32.9705 110.249 32.9705H110.024C109.839 32.9705 109.792 32.9474 109.77 32.8377L109.579 31.8973H107.871L107.348 32.8377C107.288 32.9474 107.232 32.9705 107.048 32.9705H106.846C106.742 32.9705 106.716 32.9185 106.768 32.8205L108.943 28.9902C108.987 28.9038 109.058 28.8632 109.156 28.8632H109.387C109.485 28.8632 109.541 28.9038 109.556 28.9844L110.379 32.8205Z" fill="white"/>
<path d="M114.181 28.8749C114.291 28.8749 114.324 28.9152 114.305 29.0249L114.266 29.2441C114.247 29.3535 114.2 29.3941 114.09 29.3941H113L112.396 32.8205C112.376 32.9299 112.335 32.9705 112.219 32.9705H111.965C111.85 32.9705 111.823 32.9299 111.842 32.8205L112.446 29.3941H111.356C111.241 29.3941 111.213 29.3535 111.232 29.2441L111.271 29.0249C111.29 28.9152 111.332 28.8749 111.447 28.8749H114.181Z" fill="white"/>
<path d="M117.881 28.8749C117.996 28.8749 118.023 28.9152 118.004 29.0249L117.966 29.2441C117.946 29.3535 117.905 29.3941 117.789 29.3941H115.88L115.661 30.6341H117.305C117.42 30.6341 117.448 30.6746 117.428 30.7899L117.39 31.0032C117.37 31.1188 117.329 31.1532 117.214 31.1532H115.57L115.341 32.4512H117.319C117.435 32.4512 117.462 32.4917 117.443 32.6011L117.404 32.8205C117.385 32.9299 117.343 32.9705 117.228 32.9705H114.84C114.73 32.9705 114.697 32.9299 114.716 32.8205L115.385 29.0249C115.405 28.9152 115.452 28.8749 115.562 28.8749H117.881Z" fill="white"/>
<path d="M121.605 28.8749C121.72 28.8749 121.753 28.9152 121.734 29.0249L121.13 32.4512H122.941C123.056 32.4512 123.09 32.4917 123.07 32.6011L123.032 32.8205C123.012 32.9299 122.965 32.9705 122.85 32.9705H120.629C120.519 32.9705 120.486 32.9299 120.505 32.8205L121.174 29.0249C121.194 28.9152 121.241 28.8749 121.351 28.8749H121.605Z" fill="white"/>
<path d="M124.784 29.0249C124.803 28.9152 124.851 28.8749 124.96 28.8749H125.214C125.329 28.8749 125.363 28.9152 125.343 29.0249L124.674 32.8205C124.655 32.9299 124.607 32.9705 124.492 32.9705H124.238C124.128 32.9705 124.095 32.9299 124.115 32.8205L124.784 29.0249Z" fill="white"/>
<path d="M130.434 28.8749C130.544 28.8749 130.577 28.9152 130.558 29.0249L129.889 32.8205C129.869 32.9299 129.822 32.9705 129.712 32.9705H129.482C129.366 32.9705 129.339 32.9299 129.358 32.8205L129.725 30.738C129.781 30.4206 129.88 30.0575 130.02 29.6535H129.991C129.829 29.9534 129.616 30.2767 129.359 30.6225L128.397 31.9264C128.343 32.0014 128.273 32.0358 128.198 32.0358H128.054C127.979 32.0358 127.922 32.0014 127.895 31.9264L127.383 30.6111C127.266 30.3227 127.178 30.0054 127.119 29.6535H127.084C127.083 30.017 127.048 30.3803 126.985 30.738L126.618 32.8205C126.599 32.9299 126.557 32.9705 126.442 32.9705H126.222C126.113 32.9705 126.08 32.9299 126.099 32.8205L126.768 29.0249C126.788 28.9152 126.835 28.8749 126.945 28.8749H127.147C127.268 28.8749 127.304 28.898 127.339 28.9902L128.25 31.3495L129.986 28.996C130.056 28.898 130.094 28.8749 130.215 28.8749H130.434Z" fill="white"/>
<path d="M131.987 29.0249C132.006 28.9152 132.054 28.8749 132.163 28.8749H132.417C132.533 28.8749 132.566 28.9152 132.546 29.0249L131.877 32.8205C131.858 32.9299 131.81 32.9705 131.695 32.9705H131.441C131.331 32.9705 131.298 32.9299 131.318 32.8205L131.987 29.0249Z" fill="white"/>
<path d="M136.541 28.8749C136.651 28.8749 136.684 28.9152 136.664 29.0249L136.626 29.2441C136.606 29.3535 136.559 29.3941 136.449 29.3941H135.359L134.755 32.8205C134.736 32.9299 134.694 32.9705 134.578 32.9705H134.325C134.209 32.9705 134.182 32.9299 134.201 32.8205L134.805 29.3941H133.715C133.6 29.3941 133.572 29.3535 133.592 29.2441L133.63 29.0249C133.65 28.9152 133.692 28.8749 133.807 28.8749H136.541Z" fill="white"/>
<path d="M140.24 28.8749C140.356 28.8749 140.383 28.9152 140.363 29.0249L140.325 29.2441C140.306 29.3535 140.264 29.3941 140.148 29.3941H138.239L138.02 30.6341H139.665C139.78 30.6341 139.807 30.6746 139.787 30.7899L139.75 31.0032C139.729 31.1188 139.688 31.1532 139.573 31.1532H137.929L137.7 32.4512H139.679C139.794 32.4512 139.822 32.4917 139.802 32.6011L139.764 32.8205C139.744 32.9299 139.703 32.9705 139.587 32.9705H137.199C137.089 32.9705 137.056 32.9299 137.075 32.8205L137.745 29.0249C137.764 28.9152 137.811 28.8749 137.921 28.8749H140.24Z" fill="white"/>
<path d="M143.931 30.3919C144.044 29.7515 143.709 29.3941 142.993 29.3941H142.145L141.606 32.4513H142.454C143.17 32.4513 143.631 32.0936 143.744 31.4532L143.931 30.3919ZM143.085 28.8749C144.146 28.8749 144.656 29.4515 144.489 30.3977L144.304 31.4474C144.137 32.3936 143.424 32.9705 142.363 32.9705H141.105C140.995 32.9705 140.963 32.9299 140.982 32.8205L141.651 29.0249C141.67 28.9152 141.718 28.8749 141.827 28.8749H143.085Z" fill="white"/>
</svg>
