<svg width="31" height="30" viewBox="0 0 31 30" fill="none" xmlns="http://www.w3.org/2000/svg">
<mask id="path-1-outside-1_1070_35653" maskUnits="userSpaceOnUse" x="0" y="0" width="31" height="30" fill="black">
<rect fill="white" width="31" height="30"/>
<path d="M3.86575 7.84498C3.86498 7.84615 3.86421 7.84694 3.86343 7.84772C3.86421 7.84694 3.86498 7.84576 3.86575 7.84498ZM2.9465 13.3449C2.94611 13.3457 2.94611 13.3469 2.94611 13.3473C2.94611 13.3457 2.9465 13.3438 2.94688 13.3422C2.9465 13.3434 2.9465 13.3442 2.9465 13.3449ZM5.88881 23.1083C5.88997 23.109 5.89152 23.1102 5.89268 23.1114C5.89113 23.1098 5.88958 23.1087 5.88804 23.1075C5.88842 23.1079 5.88842 23.1079 5.88881 23.1083ZM24.821 23.6214C24.8237 23.6194 24.8268 23.6171 24.8295 23.6151C24.8268 23.6171 24.8237 23.6194 24.821 23.6214ZM11.9557 27.5894C11.9615 27.5917 11.9677 27.5945 11.9731 27.5968C11.9677 27.5945 11.9615 27.5917 11.9557 27.5894ZM8.35331 25.4152C8.35873 25.4191 8.36337 25.423 8.3684 25.4269C8.36337 25.423 8.35873 25.4191 8.35331 25.4152ZM2.07367 18.2525C2.07793 18.2631 2.08257 18.2736 2.08721 18.2842C2.08257 18.2736 2.07793 18.2631 2.07367 18.2525ZM2.96004 16.6406C2.9612 16.6461 2.96197 16.6515 2.96275 16.6574C2.96197 16.6515 2.96081 16.6461 2.96004 16.6406ZM3.79998 10.2038C3.79689 10.2104 3.79457 10.2174 3.79147 10.2245C3.79418 10.2174 3.79689 10.2104 3.79998 10.2038ZM5.51391 7.2667C5.50347 7.28074 5.49263 7.2944 5.48219 7.30806C5.49263 7.29401 5.50347 7.28035 5.51391 7.2667ZM11.0813 3.09462C11.0701 3.0993 11.0592 3.10438 11.0484 3.10906C11.0592 3.10438 11.0701 3.0993 11.0813 3.09462ZM17.968 2.36103C18.7437 2.46873 19.514 2.62169 20.2707 2.8246C21.0538 3.03492 21.8218 3.30183 22.5693 3.61789C22.5453 3.60775 22.5213 3.59721 22.4977 3.58706C23.5961 4.05531 24.6446 4.64178 25.5924 5.37459C25.9143 5.629 26.2227 5.9002 26.514 6.18934C26.7964 6.47029 27.0588 6.77192 27.3033 7.08682C27.5923 7.46883 27.8484 7.87425 28.086 8.2906C28.3316 8.721 28.5526 9.16583 28.7464 9.62237C28.929 10.0656 29.0899 10.5179 29.2192 10.9799C29.3511 11.4536 29.447 11.9371 29.5144 12.424C29.6444 13.4476 29.6351 14.4828 29.5031 15.5059C29.5051 15.4899 29.507 15.4743 29.5093 15.4587C29.4385 15.9874 29.3376 16.5111 29.2041 17.0277C29.0702 17.5482 28.8946 18.0571 28.6891 18.5538C28.2659 19.5586 27.7037 20.4978 27.0441 21.3621C26.391 22.2073 25.6435 22.9768 24.8036 23.6354C24.8098 23.6308 24.8156 23.6261 24.821 23.6214C23.8785 24.3534 22.8416 24.9578 21.7475 25.4276C21.467 25.5459 21.1834 25.6559 20.8944 25.7515C20.595 25.8506 20.2901 25.9326 19.9837 26.0055C19.3732 26.1503 18.7499 26.2467 18.1285 26.3325C18.1394 26.331 18.1494 26.3294 18.1599 26.3279C17.8047 26.3758 17.4488 26.4133 17.0913 26.4359C16.7199 26.4597 16.3484 26.4695 15.9762 26.4695C15.2326 26.4695 14.4883 26.4238 13.7512 26.3251C13.3554 26.2689 12.9616 26.1967 12.5708 26.1074C12.1735 26.0172 11.7812 25.9037 11.3896 25.787C11.0004 25.6707 10.6116 25.5494 10.2274 25.4163C9.8471 25.2841 9.4722 25.1342 9.10156 24.977C9.11356 24.982 9.12439 24.9863 9.13522 24.9914C7.98344 24.499 6.88699 23.8793 5.89268 23.1114C5.89887 23.1161 5.90545 23.1211 5.91164 23.1262C5.90428 23.1204 5.89616 23.1141 5.88881 23.1083C5.8861 23.1063 5.8834 23.104 5.88069 23.102C5.88301 23.104 5.88571 23.1055 5.88804 23.1075C5.88455 23.1051 5.88146 23.1024 5.87798 23.0997C5.70155 22.896 5.53132 22.6868 5.36651 22.4734C5.36844 22.4761 5.37038 22.4785 5.37231 22.4812C4.74129 21.6497 4.2155 20.7417 3.80695 19.779C3.39607 18.7852 3.11518 17.7429 2.96546 16.6769C2.82076 15.5722 2.80606 14.4523 2.94611 13.3473C2.94418 13.3601 2.94263 13.373 2.94108 13.3859C2.94263 13.3722 2.94457 13.3586 2.9465 13.3449C2.94727 13.3375 2.94843 13.3297 2.94921 13.3219C2.94843 13.3285 2.94766 13.3352 2.94688 13.3422C3.097 12.252 3.38987 11.1883 3.81275 10.1741C4.03328 9.65788 4.28514 9.15646 4.56835 8.67222C4.85349 8.18251 5.17306 7.71466 5.51623 7.26397C5.83232 6.85542 6.1697 6.46522 6.53376 6.09881C6.89473 5.73436 7.2793 5.39371 7.68244 5.07648C8.1943 4.68159 8.73285 4.32454 9.29037 3.99911C9.84826 3.67329 10.4259 3.37869 11.0186 3.12193C11.4844 2.92449 11.9595 2.75592 12.4486 2.62637C12.9368 2.49761 13.4348 2.40084 13.9338 2.32943C15.2733 2.15189 16.6301 2.18544 17.968 2.36103ZM18.4775 1.74491C18.4779 1.74491 18.4783 1.74529 18.4787 1.74568C18.4783 1.74568 18.4779 1.7453 18.4775 1.74491ZM15.5538 1.25559C15.9461 1.23998 16.3368 1.24114 16.7264 1.28797C17.0154 1.32699 17.2986 1.38825 17.5687 1.4979C17.737 1.57204 17.8979 1.65671 18.0523 1.75817C18.0597 1.76246 18.0662 1.76715 18.0732 1.77144C17.7861 1.73398 17.4987 1.70315 17.21 1.67856C16.2958 1.59974 15.375 1.59624 14.4623 1.68637C14.0023 1.73125 13.5462 1.80226 13.0931 1.89357C12.649 1.98331 12.2095 2.09374 11.7785 2.235C11.3436 2.37742 10.9207 2.55575 10.5048 2.74656C10.0943 2.93503 9.69273 3.14574 9.2981 3.36737C8.51194 3.8087 7.76214 4.31791 7.06806 4.8962C6.38364 5.46707 5.76694 6.11326 5.21987 6.81758C4.6701 7.52502 4.18417 8.27929 3.77832 9.0796C3.36434 9.89318 3.03548 10.7524 2.79793 11.6347C2.55844 12.5263 2.42265 13.4483 2.38551 14.3712C2.34798 15.3006 2.41955 16.2348 2.57237 17.1518C2.72404 18.0578 2.98093 18.9452 3.3272 19.795C3.57365 20.4006 3.86691 20.9844 4.20312 21.5432C3.96132 21.2751 3.73073 20.9973 3.50981 20.7112C3.51368 20.7163 3.51755 20.7214 3.52142 20.7264C2.93954 19.9624 2.44663 19.1356 2.07212 18.2486C1.74636 17.4557 1.51964 16.6238 1.39931 15.7736C1.29795 14.9978 1.29795 14.2131 1.397 13.437C1.39506 13.4511 1.39313 13.4651 1.39119 13.4792C1.51616 12.5501 1.77421 11.646 2.13441 10.7821C2.12938 10.7942 2.12435 10.8063 2.11971 10.8187C2.56889 9.75543 3.16471 8.76236 3.86343 7.84772C3.86227 7.84928 3.8615 7.85045 3.86034 7.85162C3.86189 7.84967 3.86382 7.84732 3.86575 7.84498C3.86691 7.84342 3.86808 7.84187 3.86924 7.84031C3.86808 7.84187 3.86691 7.84342 3.86575 7.84498C4.35788 7.20934 4.89566 6.61427 5.46748 6.05121C6.04434 5.48268 6.65021 4.94537 7.28743 4.4463C7.27853 4.45332 7.26886 4.46112 7.25996 4.46814C7.80586 4.04282 8.36917 3.64208 8.9588 3.28036C9.52637 2.93229 10.1202 2.6217 10.7312 2.35831C11.9069 1.86002 13.1515 1.53185 14.4144 1.3586C14.4039 1.36016 14.3927 1.36172 14.3822 1.36328C14.7715 1.311 15.1618 1.27197 15.5538 1.25559ZM14.7158 1.07726C14.2689 1.12721 13.8232 1.19666 13.3817 1.28524C12.5023 1.46045 11.6384 1.71524 10.8058 2.04965C9.98599 2.37859 9.19983 2.8004 8.45622 3.27841C8.0732 3.52385 7.70217 3.7888 7.33811 4.06272C6.98294 4.33079 6.6359 4.60979 6.29814 4.9001C5.61876 5.48541 4.97033 6.11403 4.37065 6.78284C3.17167 8.11969 2.18935 9.66218 1.58309 11.3623C1.27474 12.2266 1.08052 13.133 1.019 14.05C0.956325 14.9772 1.0515 15.907 1.26313 16.8103C1.46973 17.6922 1.80207 18.5401 2.22843 19.3369C2.64936 20.1224 3.17554 20.8494 3.75742 21.5213C4.17991 22.0094 4.64031 22.4617 5.12895 22.8808C5.50501 23.3564 5.91319 23.8063 6.34418 24.2309C6.6684 24.5501 7.00925 24.8521 7.35591 25.1475C7.69908 25.4401 8.05347 25.7199 8.4156 25.9895C9.13406 26.5249 9.88772 27.0177 10.6809 27.4341C11.4825 27.8547 12.3248 28.2012 13.1895 28.4677C13.6267 28.6024 14.0712 28.7128 14.5196 28.8021C14.9699 28.8919 15.4257 28.9481 15.8838 28.9793C16.3372 29.0105 16.7918 29.007 17.2453 28.9649C17.6902 28.9227 18.132 28.8455 18.5657 28.7382C19.0002 28.6301 19.4231 28.4802 19.8355 28.3046C20.2495 28.1279 20.6534 27.9289 21.0438 27.7033C21.8164 27.2581 22.5364 26.7212 23.215 26.1417C23.5582 25.8491 23.8928 25.547 24.2147 25.2302C24.5413 24.9087 24.8624 24.5793 25.1711 24.2403C25.3561 24.037 25.5367 23.8301 25.7217 23.6272C25.772 23.5718 25.7762 23.4864 25.7217 23.4314C25.6694 23.3787 25.5801 23.3775 25.5274 23.4314C25.0284 23.9425 24.5273 24.4529 24.012 24.9477C23.7628 25.1869 23.5055 25.4159 23.2456 25.6427C22.9774 25.8776 22.7039 26.1058 22.423 26.3255C22.435 26.3158 22.4478 26.3064 22.4598 26.2966C22.035 26.626 21.5924 26.9338 21.1354 27.216C20.675 27.5004 20.1926 27.7455 19.6962 27.9574C19.6966 27.9574 19.697 27.9574 19.697 27.9574C19.3627 28.0967 19.0219 28.218 18.6725 28.3152C18.3096 28.4166 17.9393 28.4892 17.5671 28.5419C17.5838 28.5399 17.6008 28.5372 17.6178 28.5352C17.224 28.5883 16.829 28.6145 16.4312 28.6113C16.0238 28.6078 15.616 28.5747 15.2121 28.5216C14.6511 28.442 14.0979 28.3148 13.5528 28.1591C13.0018 28.0014 12.4617 27.8044 11.934 27.58C11.2983 27.3049 10.6816 26.9877 10.0908 26.6252C9.48226 26.2518 8.89651 25.8374 8.33242 25.3988C7.84223 25.0136 7.3679 24.6074 6.91407 24.1794C7.2526 24.3854 7.59965 24.5778 7.95288 24.7573C8.35254 24.9614 8.76342 25.1424 9.17894 25.3125C9.60336 25.4862 10.034 25.645 10.4708 25.7862C10.9107 25.9283 11.3556 26.0586 11.8009 26.1807C12.2493 26.3033 12.7016 26.4043 13.1589 26.4843C14.0696 26.6439 14.9966 26.706 15.9205 26.7083C16.3856 26.7099 16.8502 26.6919 17.3137 26.656C17.7768 26.6201 18.2376 26.5557 18.6961 26.4835C19.1484 26.4125 19.5999 26.3349 20.0463 26.2323C20.4971 26.1281 20.9401 25.997 21.3738 25.835C22.2064 25.5248 23.0096 25.1237 23.7679 24.6601C24.5223 24.1985 25.2326 23.6573 25.8764 23.049C26.5202 22.4406 27.0978 21.7617 27.612 21.039C28.1277 20.3148 28.5742 19.541 28.9336 18.7259C29.2977 17.9018 29.565 17.0402 29.7438 16.1564C30.1102 14.3388 30.1005 12.44 29.6049 10.6486C29.3619 9.77143 29.0068 8.92624 28.5789 8.12632C28.3684 7.73221 28.1397 7.34786 27.8863 6.9799C27.6341 6.61545 27.352 6.26972 27.0526 5.9439C26.7554 5.62042 26.432 5.32269 26.0946 5.04252C25.7457 4.75377 25.3808 4.48453 25.0024 4.23558C24.2379 3.73182 23.4216 3.32211 22.5797 2.96858C21.2945 2.42893 19.9403 2.05902 18.5642 1.84246C18.5572 1.79797 18.5235 1.76363 18.4794 1.74607C18.479 1.74568 18.479 1.74568 18.4787 1.74568C18.4876 1.74958 18.4968 1.75348 18.5057 1.75699C18.4179 1.71485 18.3378 1.65671 18.2562 1.60326C18.1738 1.54863 18.0925 1.49283 18.0082 1.44211C17.9204 1.38943 17.8264 1.3465 17.7343 1.30358C17.6314 1.25637 17.5254 1.21539 17.4178 1.18027C17.2193 1.11667 17.0112 1.07961 16.8057 1.0519C16.5713 1.0199 16.3372 1.0039 16.1012 1.00078C16.0602 1.00039 16.0192 1 15.9782 1C15.5565 1 15.1344 1.03004 14.7158 1.07726Z"/>
</mask>
<path d="M3.86575 7.84498C3.86498 7.84615 3.86421 7.84694 3.86343 7.84772C3.86421 7.84694 3.86498 7.84576 3.86575 7.84498ZM2.9465 13.3449C2.94611 13.3457 2.94611 13.3469 2.94611 13.3473C2.94611 13.3457 2.9465 13.3438 2.94688 13.3422C2.9465 13.3434 2.9465 13.3442 2.9465 13.3449ZM5.88881 23.1083C5.88997 23.109 5.89152 23.1102 5.89268 23.1114C5.89113 23.1098 5.88958 23.1087 5.88804 23.1075C5.88842 23.1079 5.88842 23.1079 5.88881 23.1083ZM24.821 23.6214C24.8237 23.6194 24.8268 23.6171 24.8295 23.6151C24.8268 23.6171 24.8237 23.6194 24.821 23.6214ZM11.9557 27.5894C11.9615 27.5917 11.9677 27.5945 11.9731 27.5968C11.9677 27.5945 11.9615 27.5917 11.9557 27.5894ZM8.35331 25.4152C8.35873 25.4191 8.36337 25.423 8.3684 25.4269C8.36337 25.423 8.35873 25.4191 8.35331 25.4152ZM2.07367 18.2525C2.07793 18.2631 2.08257 18.2736 2.08721 18.2842C2.08257 18.2736 2.07793 18.2631 2.07367 18.2525ZM2.96004 16.6406C2.9612 16.6461 2.96197 16.6515 2.96275 16.6574C2.96197 16.6515 2.96081 16.6461 2.96004 16.6406ZM3.79998 10.2038C3.79689 10.2104 3.79457 10.2174 3.79147 10.2245C3.79418 10.2174 3.79689 10.2104 3.79998 10.2038ZM5.51391 7.2667C5.50347 7.28074 5.49263 7.2944 5.48219 7.30806C5.49263 7.29401 5.50347 7.28035 5.51391 7.2667ZM11.0813 3.09462C11.0701 3.0993 11.0592 3.10438 11.0484 3.10906C11.0592 3.10438 11.0701 3.0993 11.0813 3.09462ZM17.968 2.36103C18.7437 2.46873 19.514 2.62169 20.2707 2.8246C21.0538 3.03492 21.8218 3.30183 22.5693 3.61789C22.5453 3.60775 22.5213 3.59721 22.4977 3.58706C23.5961 4.05531 24.6446 4.64178 25.5924 5.37459C25.9143 5.629 26.2227 5.9002 26.514 6.18934C26.7964 6.47029 27.0588 6.77192 27.3033 7.08682C27.5923 7.46883 27.8484 7.87425 28.086 8.2906C28.3316 8.721 28.5526 9.16583 28.7464 9.62237C28.929 10.0656 29.0899 10.5179 29.2192 10.9799C29.3511 11.4536 29.447 11.9371 29.5144 12.424C29.6444 13.4476 29.6351 14.4828 29.5031 15.5059C29.5051 15.4899 29.507 15.4743 29.5093 15.4587C29.4385 15.9874 29.3376 16.5111 29.2041 17.0277C29.0702 17.5482 28.8946 18.0571 28.6891 18.5538C28.2659 19.5586 27.7037 20.4978 27.0441 21.3621C26.391 22.2073 25.6435 22.9768 24.8036 23.6354C24.8098 23.6308 24.8156 23.6261 24.821 23.6214C23.8785 24.3534 22.8416 24.9578 21.7475 25.4276C21.467 25.5459 21.1834 25.6559 20.8944 25.7515C20.595 25.8506 20.2901 25.9326 19.9837 26.0055C19.3732 26.1503 18.7499 26.2467 18.1285 26.3325C18.1394 26.331 18.1494 26.3294 18.1599 26.3279C17.8047 26.3758 17.4488 26.4133 17.0913 26.4359C16.7199 26.4597 16.3484 26.4695 15.9762 26.4695C15.2326 26.4695 14.4883 26.4238 13.7512 26.3251C13.3554 26.2689 12.9616 26.1967 12.5708 26.1074C12.1735 26.0172 11.7812 25.9037 11.3896 25.787C11.0004 25.6707 10.6116 25.5494 10.2274 25.4163C9.8471 25.2841 9.4722 25.1342 9.10156 24.977C9.11356 24.982 9.12439 24.9863 9.13522 24.9914C7.98344 24.499 6.88699 23.8793 5.89268 23.1114C5.89887 23.1161 5.90545 23.1211 5.91164 23.1262C5.90428 23.1204 5.89616 23.1141 5.88881 23.1083C5.8861 23.1063 5.8834 23.104 5.88069 23.102C5.88301 23.104 5.88571 23.1055 5.88804 23.1075C5.88455 23.1051 5.88146 23.1024 5.87798 23.0997C5.70155 22.896 5.53132 22.6868 5.36651 22.4734C5.36844 22.4761 5.37038 22.4785 5.37231 22.4812C4.74129 21.6497 4.2155 20.7417 3.80695 19.779C3.39607 18.7852 3.11518 17.7429 2.96546 16.6769C2.82076 15.5722 2.80606 14.4523 2.94611 13.3473C2.94418 13.3601 2.94263 13.373 2.94108 13.3859C2.94263 13.3722 2.94457 13.3586 2.9465 13.3449C2.94727 13.3375 2.94843 13.3297 2.94921 13.3219C2.94843 13.3285 2.94766 13.3352 2.94688 13.3422C3.097 12.252 3.38987 11.1883 3.81275 10.1741C4.03328 9.65788 4.28514 9.15646 4.56835 8.67222C4.85349 8.18251 5.17306 7.71466 5.51623 7.26397C5.83232 6.85542 6.1697 6.46522 6.53376 6.09881C6.89473 5.73436 7.2793 5.39371 7.68244 5.07648C8.1943 4.68159 8.73285 4.32454 9.29037 3.99911C9.84826 3.67329 10.4259 3.37869 11.0186 3.12193C11.4844 2.92449 11.9595 2.75592 12.4486 2.62637C12.9368 2.49761 13.4348 2.40084 13.9338 2.32943C15.2733 2.15189 16.6301 2.18544 17.968 2.36103ZM18.4775 1.74491C18.4779 1.74491 18.4783 1.74529 18.4787 1.74568C18.4783 1.74568 18.4779 1.7453 18.4775 1.74491ZM15.5538 1.25559C15.9461 1.23998 16.3368 1.24114 16.7264 1.28797C17.0154 1.32699 17.2986 1.38825 17.5687 1.4979C17.737 1.57204 17.8979 1.65671 18.0523 1.75817C18.0597 1.76246 18.0662 1.76715 18.0732 1.77144C17.7861 1.73398 17.4987 1.70315 17.21 1.67856C16.2958 1.59974 15.375 1.59624 14.4623 1.68637C14.0023 1.73125 13.5462 1.80226 13.0931 1.89357C12.649 1.98331 12.2095 2.09374 11.7785 2.235C11.3436 2.37742 10.9207 2.55575 10.5048 2.74656C10.0943 2.93503 9.69273 3.14574 9.2981 3.36737C8.51194 3.8087 7.76214 4.31791 7.06806 4.8962C6.38364 5.46707 5.76694 6.11326 5.21987 6.81758C4.6701 7.52502 4.18417 8.27929 3.77832 9.0796C3.36434 9.89318 3.03548 10.7524 2.79793 11.6347C2.55844 12.5263 2.42265 13.4483 2.38551 14.3712C2.34798 15.3006 2.41955 16.2348 2.57237 17.1518C2.72404 18.0578 2.98093 18.9452 3.3272 19.795C3.57365 20.4006 3.86691 20.9844 4.20312 21.5432C3.96132 21.2751 3.73073 20.9973 3.50981 20.7112C3.51368 20.7163 3.51755 20.7214 3.52142 20.7264C2.93954 19.9624 2.44663 19.1356 2.07212 18.2486C1.74636 17.4557 1.51964 16.6238 1.39931 15.7736C1.29795 14.9978 1.29795 14.2131 1.397 13.437C1.39506 13.4511 1.39313 13.4651 1.39119 13.4792C1.51616 12.5501 1.77421 11.646 2.13441 10.7821C2.12938 10.7942 2.12435 10.8063 2.11971 10.8187C2.56889 9.75543 3.16471 8.76236 3.86343 7.84772C3.86227 7.84928 3.8615 7.85045 3.86034 7.85162C3.86189 7.84967 3.86382 7.84732 3.86575 7.84498C3.86691 7.84342 3.86808 7.84187 3.86924 7.84031C3.86808 7.84187 3.86691 7.84342 3.86575 7.84498C4.35788 7.20934 4.89566 6.61427 5.46748 6.05121C6.04434 5.48268 6.65021 4.94537 7.28743 4.4463C7.27853 4.45332 7.26886 4.46112 7.25996 4.46814C7.80586 4.04282 8.36917 3.64208 8.9588 3.28036C9.52637 2.93229 10.1202 2.6217 10.7312 2.35831C11.9069 1.86002 13.1515 1.53185 14.4144 1.3586C14.4039 1.36016 14.3927 1.36172 14.3822 1.36328C14.7715 1.311 15.1618 1.27197 15.5538 1.25559ZM14.7158 1.07726C14.2689 1.12721 13.8232 1.19666 13.3817 1.28524C12.5023 1.46045 11.6384 1.71524 10.8058 2.04965C9.98599 2.37859 9.19983 2.8004 8.45622 3.27841C8.0732 3.52385 7.70217 3.7888 7.33811 4.06272C6.98294 4.33079 6.6359 4.60979 6.29814 4.9001C5.61876 5.48541 4.97033 6.11403 4.37065 6.78284C3.17167 8.11969 2.18935 9.66218 1.58309 11.3623C1.27474 12.2266 1.08052 13.133 1.019 14.05C0.956325 14.9772 1.0515 15.907 1.26313 16.8103C1.46973 17.6922 1.80207 18.5401 2.22843 19.3369C2.64936 20.1224 3.17554 20.8494 3.75742 21.5213C4.17991 22.0094 4.64031 22.4617 5.12895 22.8808C5.50501 23.3564 5.91319 23.8063 6.34418 24.2309C6.6684 24.5501 7.00925 24.8521 7.35591 25.1475C7.69908 25.4401 8.05347 25.7199 8.4156 25.9895C9.13406 26.5249 9.88772 27.0177 10.6809 27.4341C11.4825 27.8547 12.3248 28.2012 13.1895 28.4677C13.6267 28.6024 14.0712 28.7128 14.5196 28.8021C14.9699 28.8919 15.4257 28.9481 15.8838 28.9793C16.3372 29.0105 16.7918 29.007 17.2453 28.9649C17.6902 28.9227 18.132 28.8455 18.5657 28.7382C19.0002 28.6301 19.4231 28.4802 19.8355 28.3046C20.2495 28.1279 20.6534 27.9289 21.0438 27.7033C21.8164 27.2581 22.5364 26.7212 23.215 26.1417C23.5582 25.8491 23.8928 25.547 24.2147 25.2302C24.5413 24.9087 24.8624 24.5793 25.1711 24.2403C25.3561 24.037 25.5367 23.8301 25.7217 23.6272C25.772 23.5718 25.7762 23.4864 25.7217 23.4314C25.6694 23.3787 25.5801 23.3775 25.5274 23.4314C25.0284 23.9425 24.5273 24.4529 24.012 24.9477C23.7628 25.1869 23.5055 25.4159 23.2456 25.6427C22.9774 25.8776 22.7039 26.1058 22.423 26.3255C22.435 26.3158 22.4478 26.3064 22.4598 26.2966C22.035 26.626 21.5924 26.9338 21.1354 27.216C20.675 27.5004 20.1926 27.7455 19.6962 27.9574C19.6966 27.9574 19.697 27.9574 19.697 27.9574C19.3627 28.0967 19.0219 28.218 18.6725 28.3152C18.3096 28.4166 17.9393 28.4892 17.5671 28.5419C17.5838 28.5399 17.6008 28.5372 17.6178 28.5352C17.224 28.5883 16.829 28.6145 16.4312 28.6113C16.0238 28.6078 15.616 28.5747 15.2121 28.5216C14.6511 28.442 14.0979 28.3148 13.5528 28.1591C13.0018 28.0014 12.4617 27.8044 11.934 27.58C11.2983 27.3049 10.6816 26.9877 10.0908 26.6252C9.48226 26.2518 8.89651 25.8374 8.33242 25.3988C7.84223 25.0136 7.3679 24.6074 6.91407 24.1794C7.2526 24.3854 7.59965 24.5778 7.95288 24.7573C8.35254 24.9614 8.76342 25.1424 9.17894 25.3125C9.60336 25.4862 10.034 25.645 10.4708 25.7862C10.9107 25.9283 11.3556 26.0586 11.8009 26.1807C12.2493 26.3033 12.7016 26.4043 13.1589 26.4843C14.0696 26.6439 14.9966 26.706 15.9205 26.7083C16.3856 26.7099 16.8502 26.6919 17.3137 26.656C17.7768 26.6201 18.2376 26.5557 18.6961 26.4835C19.1484 26.4125 19.5999 26.3349 20.0463 26.2323C20.4971 26.1281 20.9401 25.997 21.3738 25.835C22.2064 25.5248 23.0096 25.1237 23.7679 24.6601C24.5223 24.1985 25.2326 23.6573 25.8764 23.049C26.5202 22.4406 27.0978 21.7617 27.612 21.039C28.1277 20.3148 28.5742 19.541 28.9336 18.7259C29.2977 17.9018 29.565 17.0402 29.7438 16.1564C30.1102 14.3388 30.1005 12.44 29.6049 10.6486C29.3619 9.77143 29.0068 8.92624 28.5789 8.12632C28.3684 7.73221 28.1397 7.34786 27.8863 6.9799C27.6341 6.61545 27.352 6.26972 27.0526 5.9439C26.7554 5.62042 26.432 5.32269 26.0946 5.04252C25.7457 4.75377 25.3808 4.48453 25.0024 4.23558C24.2379 3.73182 23.4216 3.32211 22.5797 2.96858C21.2945 2.42893 19.9403 2.05902 18.5642 1.84246C18.5572 1.79797 18.5235 1.76363 18.4794 1.74607C18.479 1.74568 18.479 1.74568 18.4787 1.74568C18.4876 1.74958 18.4968 1.75348 18.5057 1.75699C18.4179 1.71485 18.3378 1.65671 18.2562 1.60326C18.1738 1.54863 18.0925 1.49283 18.0082 1.44211C17.9204 1.38943 17.8264 1.3465 17.7343 1.30358C17.6314 1.25637 17.5254 1.21539 17.4178 1.18027C17.2193 1.11667 17.0112 1.07961 16.8057 1.0519C16.5713 1.0199 16.3372 1.0039 16.1012 1.00078C16.0602 1.00039 16.0192 1 15.9782 1C15.5565 1 15.1344 1.03004 14.7158 1.07726Z" fill="#EFDCC2"/>
<path d="M3.86575 7.84498L3.15564 7.1409L4.69997 8.39641L3.86575 7.84498ZM2.94688 13.3422L1.9974 13.0284L3.91751 13.5828L2.94688 13.3422ZM5.88881 23.1083L5.33083 23.9381L5.24853 23.8828L5.17869 23.8124L5.88881 23.1083ZM5.88804 23.1075L5.17792 23.8116L6.49131 22.3099L5.88804 23.1075ZM2.96004 16.6406L1.96992 16.7809L3.93821 16.4328L2.96004 16.6406ZM3.79147 10.2245L4.70656 10.6277L2.85843 9.86469L3.79147 10.2245ZM5.51391 7.2667L4.71962 6.65916L6.31636 7.86342L5.51391 7.2667ZM5.48219 7.30806L6.27648 7.9156L4.67974 6.71134L5.48219 7.30806ZM20.2707 2.8246L20.5297 1.85872L20.5301 1.85883L20.2707 2.8246ZM22.5693 3.61789L22.9588 2.69688L22.1798 4.53894L22.5693 3.61789ZM22.4977 3.58706L22.1028 4.50577L22.8899 2.66717L22.4977 3.58706ZM25.5924 5.37459L26.2041 4.5834L26.2125 4.59005L25.5924 5.37459ZM26.514 6.18934L27.2185 5.47958L27.2193 5.48038L26.514 6.18934ZM27.3033 7.08682L28.0932 6.47346L28.1008 6.48348L27.3033 7.08682ZM28.086 8.2906L27.2175 8.78634L27.2174 8.78617L28.086 8.2906ZM28.7464 9.62237L29.6669 9.23154L29.671 9.24146L28.7464 9.62237ZM29.2192 10.9799L30.1822 10.7105L30.1825 10.7116L29.2192 10.9799ZM29.5144 12.424L30.505 12.2871L30.5064 12.2981L29.5144 12.424ZM29.5031 15.5059L30.4949 15.6338L28.5104 15.3858L29.5031 15.5059ZM29.5093 15.4587L28.5202 15.3116L30.5005 15.5914L29.5093 15.4587ZM29.2041 17.0277L28.2356 16.7786L28.2359 16.7775L29.2041 17.0277ZM28.6891 18.5538L29.6132 18.936L29.6107 18.942L28.6891 18.5538ZM27.0441 21.3621L27.839 21.9688L27.8354 21.9735L27.0441 21.3621ZM24.8036 23.6354L25.4068 24.433L24.1865 22.8485L24.8036 23.6354ZM24.821 23.6214L24.2076 22.8316L25.475 24.3779L24.821 23.6214ZM21.7475 25.4276L22.1421 26.3465L22.1359 26.3491L21.7475 25.4276ZM20.8944 25.7515L20.5802 24.8022L20.5804 24.8021L20.8944 25.7515ZM19.9837 26.0055L20.2153 26.9783L20.2144 26.9786L19.9837 26.0055ZM18.1285 26.3325L18.2654 27.3231L17.9859 25.3428L18.1285 26.3325ZM18.1599 26.3279L18.0259 25.3369L18.3076 27.3169L18.1599 26.3279ZM17.0913 26.4359L17.0273 25.438L17.0281 25.4379L17.0913 26.4359ZM13.7512 26.3251L13.6185 27.3163L13.6107 27.3152L13.7512 26.3251ZM12.5708 26.1074L12.7921 25.1322L12.7937 25.1325L12.5708 26.1074ZM11.3896 25.787L11.1041 26.7454L11.1034 26.7452L11.3896 25.787ZM10.2274 25.4163L9.90014 26.3613L9.8989 26.3608L10.2274 25.4163ZM9.10156 24.977L8.71099 25.8975L9.4911 24.0559L9.10156 24.977ZM9.13522 24.9914L9.55929 24.0858L8.7421 25.9109L9.13522 24.9914ZM5.89268 23.1114L5.28143 23.9028L6.49595 22.3139L5.89268 23.1114ZM5.91164 23.1262L6.54546 22.3527L5.28874 23.9085L5.91164 23.1262ZM5.88881 23.1083L6.47333 22.2969L6.49287 22.311L6.51171 22.326L5.88881 23.1083ZM5.88069 23.102L5.23728 23.8675L6.46521 22.2906L5.88069 23.102ZM5.88804 23.1075L6.53144 22.342L5.33006 23.9373L5.88804 23.1075ZM5.87798 23.0997L5.26078 23.8865L5.18508 23.8271L5.12209 23.7544L5.87798 23.0997ZM5.36651 22.4734L4.55044 23.0514L6.158 21.8622L5.36651 22.4734ZM5.37231 22.4812L6.18838 21.9033L4.57571 23.0857L5.37231 22.4812ZM3.80695 19.779L2.88638 20.1697L2.88281 20.1611L3.80695 19.779ZM2.96546 16.6769L1.97513 16.816L1.97393 16.8068L2.96546 16.6769ZM2.94611 13.3473L1.95721 13.1987L3.93818 13.473L2.94611 13.3473ZM2.94108 13.3859L3.93394 13.5052L1.94744 13.2733L2.94108 13.3859ZM2.9465 13.3449L3.9411 13.4487L3.93919 13.467L3.93662 13.4852L2.9465 13.3449ZM2.94921 13.3219L1.95594 13.206L3.94433 13.4206L2.94921 13.3219ZM2.94688 13.3422L3.93754 13.4786L1.9529 13.2327L2.94688 13.3422ZM3.81275 10.1741L2.88974 9.78925L2.89314 9.78128L3.81275 10.1741ZM4.56835 8.67222L5.43253 9.1754L5.43156 9.17706L4.56835 8.67222ZM5.51623 7.26397L4.7206 6.65814L4.72532 6.65204L5.51623 7.26397ZM6.53376 6.09881L7.24425 6.80252L7.24313 6.80365L6.53376 6.09881ZM7.68244 5.07648L7.06401 4.29058L7.07161 4.28471L7.68244 5.07648ZM9.29037 3.99911L9.79468 4.86264L9.79449 4.86275L9.29037 3.99911ZM11.0186 3.12193L10.6211 2.2043L10.6284 2.20123L11.0186 3.12193ZM12.4486 2.62637L12.1925 1.65972L12.1936 1.65944L12.4486 2.62637ZM13.9338 2.32943L13.7922 1.33946L13.8024 1.3381L13.9338 2.32943ZM18.4775 1.74491L17.7674 2.44899L16.0778 0.744905H18.4775V1.74491ZM18.4787 1.74568L19.1888 1.04159L20.8784 2.74568H18.4787V1.74568ZM16.7264 1.28797L16.8458 0.295113L16.853 0.295982L16.8602 0.296959L16.7264 1.28797ZM17.5687 1.4979L17.9449 0.571363L17.9584 0.576866L17.9718 0.582764L17.5687 1.4979ZM18.0523 1.75817L17.5481 2.62173L17.5252 2.60838L17.5031 2.59385L18.0523 1.75817ZM18.0732 1.77144L18.5979 0.920143L17.9438 2.76303L18.0732 1.77144ZM17.21 1.67856L17.1252 2.67496L17.1241 2.67487L17.21 1.67856ZM14.4623 1.68637L14.5606 2.68153L14.5594 2.68165L14.4623 1.68637ZM13.0931 1.89357L12.8951 0.913378L12.8956 0.913277L13.0931 1.89357ZM11.7785 2.235L12.0899 3.18526L12.0897 3.18533L11.7785 2.235ZM10.5048 2.74656L10.0876 1.83777L10.0878 1.83765L10.5048 2.74656ZM9.2981 3.36737L9.78779 4.23927L9.78761 4.23937L9.2981 3.36737ZM7.06806 4.8962L6.42752 4.12827L6.42795 4.12791L7.06806 4.8962ZM5.21987 6.81758L6.00963 7.431L6.00947 7.4312L5.21987 6.81758ZM3.77832 9.0796L4.67019 9.53188L4.66957 9.5331L3.77832 9.0796ZM2.79793 11.6347L1.83216 11.3753L1.83232 11.3747L2.79793 11.6347ZM2.38551 14.3712L3.3847 14.4114L3.38469 14.4115L2.38551 14.3712ZM2.57237 17.1518L1.58609 17.3169L1.58598 17.3162L2.57237 17.1518ZM3.3272 19.795L4.25328 19.4177L4.25344 19.4181L3.3272 19.795ZM4.20312 21.5432L5.05998 21.0276L3.46058 22.2129L4.20312 21.5432ZM3.50981 20.7112L2.71468 21.3177L4.30123 20.1L3.50981 20.7112ZM3.52142 20.7264L4.31697 20.1206L2.72629 21.3329L3.52142 20.7264ZM2.07212 18.2486L1.15084 18.6377L1.14715 18.6287L2.07212 18.2486ZM1.39931 15.7736L0.409124 15.9137L0.407745 15.9031L1.39931 15.7736ZM1.397 13.437L0.406345 13.3006L2.38895 13.5636L1.397 13.437ZM1.39119 13.4792L2.38184 13.6156L0.400116 13.3459L1.39119 13.4792ZM2.13441 10.7821L1.21142 10.3972L3.05777 11.166L2.13441 10.7821ZM2.11971 10.8187L3.04089 11.2079L1.1824 10.4702L2.11971 10.8187ZM3.86343 7.84772L3.06878 7.24065L4.66588 8.44444L3.86343 7.84772ZM3.86034 7.85162L4.57045 8.55571L3.07688 7.23018L3.86034 7.85162ZM3.86575 7.84498L4.6682 8.44171L4.65294 8.46223L4.63665 8.48194L3.86575 7.84498ZM3.86575 7.84498L4.65647 8.45717L3.0633 7.24826L3.86575 7.84498ZM5.46748 6.05121L6.16943 6.76344L6.16911 6.76375L5.46748 6.05121ZM7.28743 4.4463L6.67082 3.65903L7.90699 5.23124L7.28743 4.4463ZM7.25996 4.46814L7.87456 5.25698L6.64039 3.6832L7.25996 4.46814ZM8.9588 3.28036L8.43588 2.42797L8.43602 2.42789L8.9588 3.28036ZM10.7312 2.35831L10.3352 1.44L10.3409 1.43758L10.7312 2.35831ZM14.4144 1.3586L14.2784 0.367876L14.5621 2.34762L14.4144 1.3586ZM14.3822 1.36328L14.5154 2.35438L14.2345 0.374262L14.3822 1.36328ZM13.3817 1.28524L13.5785 2.2657L13.5771 2.26597L13.3817 1.28524ZM10.8058 2.04965L11.1785 2.9776L11.1782 2.97773L10.8058 2.04965ZM8.45622 3.27841L8.99696 4.1196L8.99575 4.12037L8.45622 3.27841ZM7.33811 4.06272L6.73567 3.26455L6.73688 3.26365L7.33811 4.06272ZM6.29814 4.9001L5.64543 4.14249L5.6463 4.14174L6.29814 4.9001ZM4.37065 6.78284L5.11518 7.45042L5.1151 7.45052L4.37065 6.78284ZM1.58309 11.3623L2.52499 11.6982L2.52494 11.6983L1.58309 11.3623ZM1.019 14.05L2.01676 14.117L2.01672 14.1175L1.019 14.05ZM1.26313 16.8103L2.23677 16.5822L2.23677 16.5822L1.26313 16.8103ZM2.22843 19.3369L1.34701 19.8093L1.34672 19.8087L2.22843 19.3369ZM3.75742 21.5213L4.51337 20.8667L4.51355 20.8669L3.75742 21.5213ZM5.12895 22.8808L5.77996 22.1217L5.8534 22.1847L5.91341 22.2606L5.12895 22.8808ZM6.34418 24.2309L5.64262 24.9435L5.64243 24.9433L6.34418 24.2309ZM7.35591 25.1475L8.00448 24.3863L8.00479 24.3866L7.35591 25.1475ZM8.4156 25.9895L9.01281 25.1875L9.01311 25.1877L8.4156 25.9895ZM10.6809 27.4341L10.2162 28.3196L10.2161 28.3195L10.6809 27.4341ZM13.1895 28.4677L12.8952 29.4235L12.8949 29.4234L13.1895 28.4677ZM14.5196 28.8021L14.715 27.8214L14.715 27.8214L14.5196 28.8021ZM15.8838 28.9793L15.9518 27.9816L15.9525 27.9817L15.8838 28.9793ZM17.2453 28.9649L17.3395 29.9604L17.3378 29.9606L17.2453 28.9649ZM18.5657 28.7382L18.8071 29.7086L18.8059 29.7089L18.5657 28.7382ZM19.8355 28.3046L20.2282 29.2243L20.2272 29.2247L19.8355 28.3046ZM21.0438 27.7033L20.5435 26.8375L20.5445 26.8369L21.0438 27.7033ZM23.215 26.1417L22.5656 25.3812L22.5661 25.3808L23.215 26.1417ZM24.2147 25.2302L24.9163 25.9428L24.9162 25.9429L24.2147 25.2302ZM25.1711 24.2403L25.9108 24.9132L25.9105 24.9135L25.1711 24.2403ZM25.7217 23.6272L26.4621 24.2994L26.4607 24.3009L25.7217 23.6272ZM25.7217 23.4314L25.0115 24.1354L25.7217 23.4314ZM25.5274 23.4314L24.8119 22.7328L24.8122 22.7325L25.5274 23.4314ZM24.012 24.9477L24.7046 25.669L24.7045 25.6691L24.012 24.9477ZM23.2456 25.6427L22.5866 24.8905L22.5883 24.889L23.2456 25.6427ZM22.423 26.3255L23.0391 27.1132L21.792 25.5497L22.423 26.3255ZM22.4598 26.2966L21.8471 25.5063L23.0908 27.0724L22.4598 26.2966ZM21.1354 27.216L20.6098 26.3652L20.6101 26.3651L21.1354 27.216ZM19.6962 27.9574V28.9574L19.3036 27.0376L19.6962 27.9574ZM19.697 27.9574V26.9574L20.0817 28.8804L19.697 27.9574ZM18.6725 28.3152L18.4033 27.3521L18.4046 27.3517L18.6725 28.3152ZM17.5671 28.5419L17.6836 29.5351L17.427 27.5517L17.5671 28.5419ZM17.6178 28.5352L17.504 27.5417L17.7514 29.5263L17.6178 28.5352ZM16.4312 28.6113L16.4234 29.6113L16.4226 29.6113L16.4312 28.6113ZM15.2121 28.5216L15.0819 29.5131L15.0716 29.5117L15.2121 28.5216ZM13.5528 28.1591L13.2781 29.1206L13.2777 29.1205L13.5528 28.1591ZM11.934 27.58L11.5427 28.5003L11.5368 28.4978L11.934 27.58ZM10.0908 26.6252L9.56785 27.4775L9.56785 27.4775L10.0908 26.6252ZM8.33242 25.3988L7.7186 26.1882L7.71462 26.1851L8.33242 25.3988ZM6.91407 24.1794L6.22792 24.9068L7.43396 23.3251L6.91407 24.1794ZM7.95288 24.7573L8.40589 23.8658L8.40765 23.8667L7.95288 24.7573ZM9.17894 25.3125L8.80028 26.2381L8.80003 26.238L9.17894 25.3125ZM10.4708 25.7862L10.1635 26.7379L10.1631 26.7377L10.4708 25.7862ZM11.8009 26.1807L11.5373 27.1454L11.5364 27.1451L11.8009 26.1807ZM13.1589 26.4843L13.3312 25.4993L13.3315 25.4993L13.1589 26.4843ZM15.9205 26.7083L15.9231 25.7083L15.9239 25.7083L15.9205 26.7083ZM17.3137 26.656L17.391 27.653L17.391 27.653L17.3137 26.656ZM18.6961 26.4835L18.5406 25.4957L18.541 25.4956L18.6961 26.4835ZM20.0463 26.2323L20.2716 27.2066L20.2704 27.2068L20.0463 26.2323ZM21.3738 25.835L21.024 24.8982L21.0246 24.898L21.3738 25.835ZM23.7679 24.6601L24.2898 25.5131L24.2894 25.5133L23.7679 24.6601ZM27.612 21.039L26.7972 20.4593L26.7974 20.4589L27.612 21.039ZM28.9336 18.7259L28.0186 18.3224L28.0189 18.3218L28.9336 18.7259ZM29.7438 16.1564L30.7241 16.354L30.7239 16.3546L29.7438 16.1564ZM29.6049 10.6486L30.5686 10.3817L30.5687 10.382L29.6049 10.6486ZM28.5789 8.12632L27.6971 8.598L27.6968 8.59739L28.5789 8.12632ZM27.8863 6.9799L28.7086 6.41078L28.7099 6.4127L27.8863 6.9799ZM27.0526 5.9439L26.3163 6.62059L26.3161 6.62038L27.0526 5.9439ZM26.0946 5.04252L26.7321 4.27207L26.7335 4.27321L26.0946 5.04252ZM25.0024 4.23558L24.4528 5.07098L24.4522 5.0706L25.0024 4.23558ZM22.5797 2.96858L22.9669 2.04656L22.9669 2.04658L22.5797 2.96858ZM18.5642 1.84246L18.4087 2.8303L17.6889 2.71703L17.5762 1.99713L18.5642 1.84246ZM18.4794 1.74607L18.1096 2.67515L17.916 2.59809L17.7693 2.45015L18.4794 1.74607ZM18.4787 1.74568L18.0771 2.6615L18.4787 0.745678V1.74568ZM18.5057 1.75699L18.9384 0.855417L18.1386 2.68718L18.5057 1.75699ZM18.2562 1.60326L17.7084 2.43985L17.7037 2.43675L18.2562 1.60326ZM18.0082 1.44211L18.5226 0.584539L18.5236 0.585157L18.0082 1.44211ZM17.7343 1.30358L18.1513 0.394653L18.1568 0.397217L17.7343 1.30358ZM17.4178 1.18027L17.723 0.227959L17.7282 0.22966L17.4178 1.18027ZM16.8057 1.0519L16.6721 2.04293L16.6705 2.04272L16.8057 1.0519ZM16.1012 1.00078L16.1107 0.000818253L16.1144 0.000867844L16.1012 1.00078ZM4.69997 8.39641C4.64016 8.4869 4.57753 8.54778 4.57355 8.5518L3.15332 7.14363C3.15088 7.14609 3.0898 7.2054 3.03153 7.29356L4.69997 8.39641ZM3.15332 7.14363C3.13879 7.15829 3.1268 7.17129 3.11766 7.18153C3.10849 7.1918 3.10103 7.2006 3.09569 7.20701C3.09035 7.21341 3.08617 7.2186 3.08382 7.22154C3.08165 7.22425 3.07981 7.22657 3.08024 7.22603C3.08024 7.22603 3.08039 7.22585 3.08055 7.22564C3.08073 7.22542 3.08101 7.22507 3.08134 7.22464C3.082 7.22381 3.08308 7.22246 3.0844 7.22081C3.08695 7.21762 3.09132 7.2122 3.09685 7.20557C3.10238 7.19893 3.11004 7.1899 3.1194 7.17941C3.12873 7.16896 3.14091 7.15575 3.15564 7.1409L4.57587 8.54907C4.5904 8.53441 4.60239 8.52141 4.61152 8.51117C4.62069 8.5009 4.62816 8.4921 4.63349 8.48569C4.63883 8.47929 4.64301 8.4741 4.64536 8.47116C4.64754 8.46845 4.64937 8.46613 4.64894 8.46667C4.64894 8.46667 4.64879 8.46685 4.64863 8.46706C4.64845 8.46728 4.64818 8.46763 4.64784 8.46806C4.64718 8.46889 4.64611 8.47024 4.64478 8.47189C4.64224 8.47507 4.63786 8.4805 4.63234 8.48713C4.6268 8.49377 4.61914 8.5028 4.60978 8.51329C4.60045 8.52374 4.58827 8.53695 4.57355 8.5518L3.15332 7.14363ZM3.84244 13.7891C3.88456 13.7042 3.90647 13.6294 3.91831 13.5804C3.93064 13.5294 3.93678 13.4862 3.94011 13.4561C3.94655 13.3978 3.94611 13.3511 3.94611 13.3473H1.94611C1.94611 13.3431 1.94567 13.2956 1.95222 13.2364C1.95699 13.1932 1.97339 13.0564 2.05056 12.9008L3.84244 13.7891ZM1.94611 13.3473C1.94611 13.2187 1.97191 13.1192 1.97626 13.1016L3.91751 13.5828C3.9218 13.5655 3.92782 13.5392 3.93315 13.5067C3.93782 13.4782 3.94611 13.4207 3.94611 13.3473H1.94611ZM3.89637 13.656C3.91864 13.5886 3.93339 13.5197 3.94081 13.4506C3.94737 13.3897 3.9465 13.338 3.9465 13.3449H1.9465C1.9465 13.3511 1.94563 13.2986 1.95228 13.2368C1.9598 13.1668 1.97474 13.0969 1.9974 13.0284L3.89637 13.656ZM6.44679 22.2784C6.47699 22.2987 6.53755 22.3415 6.60279 22.4073L5.18256 23.8155C5.21832 23.8515 5.24994 23.8778 5.26984 23.8936C5.29115 23.9104 5.31163 23.9252 5.33083 23.9381L6.44679 22.2784ZM5.18256 23.8155C5.23786 23.8712 5.29076 23.9096 5.28476 23.905L6.49131 22.3099C6.49131 22.3099 6.49249 22.3108 6.49382 22.3119C6.49528 22.313 6.49754 22.3147 6.50028 22.3168C6.50572 22.321 6.51407 22.3275 6.52407 22.3357C6.54464 22.3526 6.57224 22.3765 6.60279 22.4073L5.18256 23.8155ZM6.59815 22.4034C6.5983 22.4036 6.59807 22.4033 6.59822 22.4035C6.59827 22.4035 6.59823 22.4035 6.59828 22.4035C6.59837 22.4036 6.59829 22.4035 6.59838 22.4036C6.59839 22.4036 6.59838 22.4036 6.59839 22.4036C6.59839 22.4036 6.59839 22.4036 6.59839 22.4036C6.59839 22.4036 6.59839 22.4036 6.59839 22.4036C6.59839 22.4036 6.59839 22.4036 6.59839 22.4036C6.5984 22.4036 6.5984 22.4036 6.5984 22.4037C6.5984 22.4037 6.59842 22.4037 6.59842 22.4037C6.59845 22.4037 6.59842 22.4037 6.59844 22.4037C6.59849 22.4037 6.59842 22.4037 6.59846 22.4037C6.59847 22.4037 6.5985 22.4038 6.5985 22.4038C6.59853 22.4038 6.59851 22.4038 6.59854 22.4038C6.59981 22.4051 6.59756 22.4028 6.59893 22.4042L5.17869 23.8124C5.17854 23.8122 5.17878 23.8124 5.17863 23.8123C5.17857 23.8122 5.17862 23.8123 5.17857 23.8122C5.17847 23.8121 5.17855 23.8122 5.17846 23.8121C5.17846 23.8121 5.17846 23.8121 5.17846 23.8121C5.17846 23.8121 5.17846 23.8121 5.17846 23.8121C5.17846 23.8121 5.17846 23.8121 5.17846 23.8121C5.17845 23.8121 5.17846 23.8121 5.17845 23.8121C5.17845 23.8121 5.17845 23.8121 5.17844 23.8121C5.17844 23.8121 5.17842 23.8121 5.17842 23.8121C5.1784 23.812 5.17843 23.8121 5.1784 23.8121C5.17836 23.812 5.17843 23.8121 5.17838 23.812C5.17838 23.812 5.17834 23.812 5.17834 23.812C5.17832 23.812 5.17833 23.812 5.17831 23.812C5.17704 23.8107 5.17929 23.8129 5.17792 23.8116L6.59815 22.4034ZM24.2365 22.81C24.2337 22.812 24.2316 22.8135 24.2309 22.8141C24.2302 22.8145 24.2298 22.8149 24.2307 22.8142C24.2312 22.8138 24.2331 22.8124 24.2352 22.8109C24.2374 22.8093 24.2408 22.8067 24.245 22.8038L25.414 24.4265C25.4168 24.4245 25.4188 24.423 25.4196 24.4225C25.4202 24.422 25.4207 24.4216 25.4198 24.4223C25.4192 24.4227 25.4173 24.4241 25.4152 24.4257C25.4131 24.4273 25.4096 24.4298 25.4055 24.4328L24.2365 22.81ZM25.414 24.4265C25.4168 24.4245 25.4188 24.423 25.4196 24.4225C25.4202 24.422 25.4207 24.4216 25.4198 24.4223C25.4192 24.4227 25.4173 24.4241 25.4152 24.4257C25.4131 24.4273 25.4096 24.4298 25.4055 24.4328L24.2365 22.81C24.2337 22.812 24.2316 22.8135 24.2309 22.8141C24.2302 22.8145 24.2298 22.8149 24.2307 22.8142C24.2312 22.8138 24.2331 22.8124 24.2352 22.8109C24.2374 22.8093 24.2408 22.8067 24.245 22.8038L25.414 24.4265ZM12.3298 26.662C12.3428 26.6673 12.3537 26.6719 12.3597 26.6745C12.3628 26.6758 12.3656 26.6771 12.3672 26.6777C12.3683 26.6782 12.3685 26.6783 12.3692 26.6786C12.3694 26.6787 12.3696 26.6788 12.3697 26.6788C12.3698 26.6789 12.3698 26.6789 12.3698 26.6789L11.5763 28.5147C11.5739 28.5137 11.5713 28.5126 11.5705 28.5122C11.5693 28.5117 11.5692 28.5116 11.5694 28.5117C11.5694 28.5117 11.5743 28.5138 11.5815 28.5168L12.3298 26.662ZM11.5763 28.5147C11.5739 28.5137 11.5713 28.5126 11.5705 28.5122C11.5693 28.5117 11.5692 28.5116 11.5694 28.5117C11.5694 28.5117 11.5743 28.5138 11.5815 28.5168L12.3298 26.662C12.3428 26.6673 12.3537 26.6719 12.3597 26.6745C12.3628 26.6758 12.3656 26.6771 12.3672 26.6777C12.3683 26.6782 12.3685 26.6783 12.3692 26.6786C12.3694 26.6787 12.3696 26.6788 12.3697 26.6788C12.3698 26.6789 12.3698 26.6789 12.3698 26.6789L11.5763 28.5147ZM8.93783 24.6038C8.95858 24.6187 8.97473 24.6314 8.98165 24.6369C8.9839 24.6387 8.9887 24.6425 8.98714 24.6413C8.98713 24.6413 8.98698 24.6412 8.98674 24.641C8.98649 24.6408 8.98611 24.6405 8.98564 24.6401C8.98469 24.6394 8.98322 24.6382 8.98138 24.6368L7.75542 26.217C7.74941 26.2123 7.7445 26.2084 7.74222 26.2066C7.74161 26.2061 7.74106 26.2057 7.74069 26.2054C7.74018 26.205 7.74013 26.2049 7.73986 26.2047C7.73948 26.2044 7.73979 26.2047 7.74035 26.2051C7.74235 26.2067 7.75346 26.2155 7.76879 26.2265L8.93783 24.6038ZM7.75542 26.217C7.74941 26.2123 7.7445 26.2084 7.74222 26.2066C7.74161 26.2061 7.74106 26.2057 7.74069 26.2054C7.74018 26.205 7.74013 26.2049 7.73986 26.2047C7.73948 26.2044 7.73979 26.2047 7.74035 26.2051C7.74235 26.2067 7.75346 26.2155 7.76879 26.2265L8.93783 24.6038C8.95858 24.6187 8.97473 24.6314 8.98165 24.6369C8.9839 24.6387 8.9887 24.6425 8.98714 24.6413C8.98713 24.6413 8.98698 24.6412 8.98674 24.641C8.98649 24.6408 8.98611 24.6405 8.98564 24.6401C8.98469 24.6394 8.98322 24.6382 8.98138 24.6368L7.75542 26.217ZM3.00088 17.878C2.99916 17.8738 2.99814 17.8714 2.99846 17.8722C2.99895 17.8733 2.99971 17.875 3.0023 17.8809L1.17212 18.6874C1.16859 18.6794 1.15755 18.6545 1.14646 18.6271L3.00088 17.878ZM1.17212 18.6874C1.16859 18.6794 1.15755 18.6545 1.14646 18.6271L3.00088 17.878C2.99916 17.8738 2.99814 17.8714 2.99846 17.8722C2.99895 17.8733 2.99971 17.875 3.0023 17.8809L1.17212 18.6874ZM3.93821 16.4328C3.94818 16.4797 3.95315 16.519 3.95412 16.5263L1.97137 16.7884C1.97122 16.7873 1.97209 16.794 1.97354 16.8033C1.9751 16.8133 1.97776 16.829 1.98187 16.8484L3.93821 16.4328ZM1.97137 16.7884C1.97276 16.799 1.97406 16.8073 1.9749 16.8125C1.97569 16.8174 1.97631 16.8209 1.97615 16.82C1.97611 16.8198 1.97611 16.8198 1.976 16.8191C1.97592 16.8187 1.9758 16.818 1.97565 16.8171C1.97537 16.8155 1.97492 16.8129 1.97439 16.8097C1.97335 16.8035 1.97169 16.7933 1.96992 16.7809L3.95016 16.5004C3.94878 16.4906 3.94755 16.4832 3.94697 16.4797C3.94668 16.4779 3.94646 16.4767 3.94641 16.4764C3.94639 16.4763 3.94638 16.4762 3.94643 16.4765C3.94644 16.4765 3.94656 16.4773 3.94664 16.4777C3.94696 16.4795 3.94807 16.4859 3.94931 16.4936C3.95061 16.5016 3.95235 16.5129 3.95412 16.5263L1.97137 16.7884ZM4.70619 10.6266C4.71363 10.6107 4.71911 10.5977 4.72233 10.5899C4.72398 10.5859 4.72525 10.5827 4.726 10.5808C4.72673 10.579 4.72721 10.5778 4.7271 10.578C4.72701 10.5783 4.727 10.5783 4.72672 10.579C4.72651 10.5795 4.72615 10.5805 4.72573 10.5815C4.72492 10.5836 4.72357 10.587 4.72193 10.5911C4.7187 10.5992 4.71342 10.6121 4.70656 10.6277L2.87638 9.8212C2.87107 9.83325 2.86724 9.84269 2.86541 9.84727C2.86407 9.85061 2.86249 9.85466 2.86436 9.84989C2.8653 9.84748 2.8688 9.83851 2.87323 9.82776C2.87786 9.81653 2.88478 9.80021 2.89377 9.78094L4.70619 10.6266ZM2.85843 9.86469C2.85874 9.86387 2.87364 9.8241 2.89377 9.78094L4.70619 10.6266C4.71432 10.6092 4.71991 10.5956 4.72249 10.5892C4.72476 10.5836 4.72642 10.5793 4.72451 10.5842L2.85843 9.86469ZM6.31636 7.86342C6.30534 7.87824 6.29535 7.89119 6.28902 7.89938C6.28085 7.90994 6.27952 7.91162 6.27648 7.9156L4.68789 6.70052C4.69223 6.69485 4.69623 6.68968 4.69934 6.68566C4.70089 6.68366 4.70244 6.68166 4.70367 6.68007C4.705 6.67836 4.70607 6.67698 4.70708 6.67567C4.71139 6.6701 4.71205 6.66919 4.71147 6.66997L6.31636 7.86342ZM4.67974 6.71134C4.69076 6.69651 4.70075 6.68356 4.70708 6.67538C4.71525 6.66482 4.71658 6.66313 4.71962 6.65916L6.30821 7.87423C6.30387 7.8799 6.29987 7.88507 6.29676 7.88909C6.29521 7.89109 6.29366 7.89309 6.29243 7.89469C6.2911 7.89639 6.29003 7.89778 6.28902 7.89909C6.28471 7.90466 6.28405 7.90556 6.28463 7.90478L4.67974 6.71134ZM11.4664 4.01748C11.47 4.01597 11.4726 4.01487 11.4735 4.01447C11.4743 4.01412 11.4743 4.0141 11.4724 4.01496C11.4713 4.01543 11.4705 4.01579 11.4688 4.01658C11.4673 4.01725 11.4652 4.01816 11.463 4.01914C11.4587 4.02108 11.4524 4.02385 11.4452 4.02698L10.6516 2.19114C10.6498 2.19193 10.649 2.19232 10.65 2.19184C10.6522 2.19088 10.652 2.19095 10.657 2.18873C10.6635 2.18581 10.6785 2.17913 10.6961 2.17176L11.4664 4.01748ZM10.6516 2.19114C10.6498 2.19193 10.649 2.19232 10.65 2.19184C10.6522 2.19088 10.652 2.19095 10.657 2.18873C10.6635 2.18581 10.6785 2.17913 10.6961 2.17176L11.4664 4.01748C11.47 4.01597 11.4726 4.01487 11.4735 4.01447C11.4743 4.01412 11.4743 4.0141 11.4724 4.01496C11.4713 4.01543 11.4705 4.01579 11.4688 4.01658C11.4673 4.01725 11.4652 4.01816 11.463 4.01914C11.4587 4.02108 11.4524 4.02385 11.4452 4.02698L10.6516 2.19114ZM18.1055 1.37053C18.9195 1.48355 19.7305 1.64443 20.5297 1.85872L20.0118 3.79049C19.2974 3.59896 18.5678 3.45391 17.8304 3.35153L18.1055 1.37053ZM20.5301 1.85883C21.3596 2.08162 22.171 2.36378 22.9587 2.69685L22.1798 4.53894C21.4726 4.23988 20.748 3.98822 20.0114 3.79037L20.5301 1.85883ZM22.1797 4.5389C22.1535 4.52779 22.1153 4.51115 22.1028 4.50577L22.8926 2.66836C22.9273 2.68327 22.9371 2.6877 22.9588 2.69688L22.1797 4.5389ZM22.8899 2.66717C24.0534 3.1632 25.1784 3.79047 26.2041 4.58344L24.9808 6.16573C24.1108 5.49309 23.1387 4.94742 22.1055 4.50696L22.8899 2.66717ZM26.2125 4.59005C26.5619 4.86616 26.8986 5.16216 27.2185 5.47958L25.8096 6.89911C25.5467 6.63824 25.2668 6.39185 24.9724 6.15913L26.2125 4.59005ZM27.2193 5.48038C27.5357 5.7952 27.826 6.12953 28.0931 6.47351L26.5134 7.70013C26.2915 7.41431 26.0572 7.14538 25.8088 6.89831L27.2193 5.48038ZM28.1008 6.48348C28.4231 6.90955 28.7027 7.35358 28.9545 7.79503L27.2174 8.78617C26.9942 8.39493 26.7615 8.02811 26.5058 7.69015L28.1008 6.48348ZM28.9544 7.79487C29.2192 8.25871 29.4575 8.73855 29.6669 9.23157L27.8259 10.0132C27.6476 9.59311 27.4441 9.18329 27.2175 8.78634L28.9544 7.79487ZM29.671 9.24146C29.8659 9.7146 30.0406 10.2044 30.1822 10.7105L28.2561 11.2493C28.1393 10.8314 27.9921 10.4167 27.8218 10.0033L29.671 9.24146ZM30.1825 10.7116C30.3279 11.2338 30.4323 11.7617 30.5049 12.2871L28.5238 12.561C28.4618 12.1125 28.3743 11.6734 28.2558 11.2482L30.1825 10.7116ZM30.5064 12.2981C30.6478 13.4111 30.637 14.5318 30.4949 15.6338L28.5114 15.378C28.6331 14.4337 28.641 13.484 28.5223 12.55L30.5064 12.2981ZM28.5104 15.3858C28.5124 15.3693 28.5157 15.3419 28.5202 15.3116L30.4985 15.6058C30.4985 15.6057 30.4983 15.607 30.4978 15.6104C30.4974 15.614 30.4968 15.6186 30.4959 15.6259L28.5104 15.3858ZM30.5005 15.5914C30.4246 16.158 30.3162 16.721 30.1723 17.2778L28.2359 16.7775C28.359 16.3011 28.4525 15.8168 28.5182 15.3259L30.5005 15.5914ZM30.1726 17.2768C30.0254 17.8492 29.8338 18.4027 29.6132 18.936L27.765 18.1716C27.9554 17.7114 28.1151 17.2473 28.2356 16.7786L30.1726 17.2768ZM29.6107 18.942C29.1511 20.0331 28.5441 21.045 27.839 21.9688L26.2491 20.7554C26.8634 19.9506 27.3806 19.0841 27.7676 18.1656L29.6107 18.942ZM27.8354 21.9735C27.1363 22.8782 26.3314 23.7081 25.4206 24.4223L24.1865 22.8485C24.9556 22.2454 25.6456 21.5364 26.2528 20.7507L27.8354 21.9735ZM24.2003 22.8379C24.1905 22.8453 24.1793 22.8543 24.167 22.8649L25.475 24.3779C25.4518 24.3979 25.429 24.4162 25.4068 24.433L24.2003 22.8379ZM25.4344 24.4111C24.4221 25.1974 23.3112 25.8445 22.1421 26.3465L21.353 24.5088C22.3721 24.0712 23.3349 23.5094 24.2076 22.8316L25.4344 24.4111ZM22.1359 26.3491C21.8382 26.4746 21.5291 26.5949 21.2085 26.7009L20.5804 24.8021C20.8378 24.717 21.0958 24.6171 21.3591 24.5062L22.1359 26.3491ZM21.2086 26.7009C20.8738 26.8117 20.5397 26.9011 20.2153 26.9783L19.752 25.0327C20.0405 24.964 20.3161 24.8896 20.5802 24.8022L21.2086 26.7009ZM20.2144 26.9786C19.5557 27.1348 18.8938 27.2363 18.2654 27.3231L17.9917 25.3419C18.6059 25.2571 19.1906 25.1659 19.7529 25.0325L20.2144 26.9786ZM17.9859 25.3428C17.9938 25.3416 17.9942 25.3415 18.0121 25.3388L18.3076 27.3169C18.3046 27.3173 18.285 27.3203 18.2711 27.3223L17.9859 25.3428ZM18.2938 27.3188C17.9193 27.3694 17.5395 27.4096 17.1544 27.4339L17.0281 25.4379C17.358 25.417 17.6901 25.3822 18.0259 25.3369L18.2938 27.3188ZM17.1552 27.4339C16.7589 27.4593 16.3658 27.4695 15.9762 27.4695V25.4695C16.3311 25.4695 16.6808 25.4602 17.0273 25.438L17.1552 27.4339ZM15.9762 27.4695C15.1919 27.4695 14.403 27.4214 13.6185 27.3163L13.884 25.334C14.5735 25.4263 15.2734 25.4695 15.9762 25.4695V27.4695ZM13.6107 27.3152C13.1883 27.2552 12.7669 27.178 12.3479 27.0822L12.7937 25.1325C13.1563 25.2154 13.5226 25.2826 13.8918 25.335L13.6107 27.3152ZM12.3496 27.0826C11.9172 26.9845 11.4975 26.8626 11.1041 26.7454L11.6752 24.8287C12.0649 24.9448 12.4297 25.05 12.7921 25.1322L12.3496 27.0826ZM11.1034 26.7452C10.707 26.6268 10.3032 26.5008 9.90014 26.3613L10.5547 24.4714C10.92 24.5979 11.2938 24.7147 11.6759 24.8289L11.1034 26.7452ZM9.8989 26.3608C9.49063 26.2188 9.09383 26.06 8.71099 25.8975L9.49213 24.0564C9.85058 24.2085 10.2036 24.3493 10.5559 24.4718L9.8989 26.3608ZM9.4911 24.0559C9.49104 24.0559 9.49124 24.056 9.49183 24.0563C9.49245 24.0565 9.49324 24.0568 9.49458 24.0574C9.4966 24.0582 9.50169 24.0604 9.50681 24.0625C9.51743 24.067 9.53659 24.0751 9.55929 24.0858L8.71115 25.897C8.71733 25.8999 8.72233 25.9021 8.72564 25.9036C8.7273 25.9043 8.72861 25.9049 8.72947 25.9053C8.73032 25.9056 8.73082 25.9058 8.73084 25.9058C8.73084 25.9058 8.73055 25.9057 8.72972 25.9054C8.72876 25.905 8.72791 25.9046 8.72614 25.9039C8.72319 25.9027 8.71793 25.9005 8.71202 25.898L9.4911 24.0559ZM8.7421 25.9109C7.52291 25.3896 6.35116 24.729 5.28143 23.9028L6.50392 22.3199C7.42282 23.0296 8.44397 23.6083 9.52835 24.0719L8.7421 25.9109ZM6.49595 22.3139C6.50648 22.3218 6.52475 22.3358 6.54546 22.3527L5.27781 23.8997C5.28241 23.9035 5.28579 23.9061 5.28743 23.9074C5.28911 23.9087 5.28993 23.9093 5.2894 23.9089L6.49595 22.3139ZM5.28874 23.9085C5.28922 23.9089 5.28898 23.9087 5.2844 23.9051C5.28124 23.9027 5.27374 23.8968 5.26591 23.8906L6.51171 22.326C6.51123 22.3256 6.51146 22.3258 6.51604 22.3294C6.5192 22.3318 6.5267 22.3377 6.53453 22.3439L5.28874 23.9085ZM5.30429 23.9196C5.2911 23.9101 5.28059 23.9021 5.27432 23.8972C5.27106 23.8947 5.26838 23.8926 5.26665 23.8912C5.26503 23.89 5.2636 23.8888 5.26345 23.8887C5.26292 23.8883 5.26368 23.8889 5.26462 23.8896C5.26568 23.8905 5.26768 23.892 5.27025 23.894C5.27518 23.8979 5.28433 23.9049 5.29617 23.9134L6.46521 22.2906C6.4784 22.3001 6.4889 22.3082 6.49518 22.313C6.49844 22.3156 6.50111 22.3177 6.50285 22.319C6.50446 22.3203 6.5059 22.3214 6.50605 22.3216C6.50657 22.322 6.50582 22.3214 6.50488 22.3206C6.50382 22.3198 6.50182 22.3182 6.49924 22.3162C6.49432 22.3124 6.48517 22.3054 6.47333 22.2969L5.30429 23.9196ZM6.52409 22.3365C6.50223 22.3181 6.48391 22.3044 6.47317 22.2965C6.46765 22.2925 6.46321 22.2893 6.46065 22.2875C6.45834 22.2859 6.4564 22.2845 6.45709 22.285C6.45715 22.2851 6.45787 22.2856 6.45869 22.2861C6.45956 22.2867 6.46091 22.2877 6.46253 22.2888C6.46572 22.2911 6.47078 22.2947 6.47692 22.2992C6.48889 22.3079 6.50842 22.3226 6.53144 22.342L5.24463 23.873C5.26649 23.8914 5.28481 23.9051 5.29555 23.913C5.30107 23.917 5.30551 23.9202 5.30807 23.922C5.31038 23.9236 5.31233 23.925 5.31163 23.9245C5.31157 23.9245 5.31085 23.924 5.31004 23.9234C5.30916 23.9228 5.30781 23.9218 5.30619 23.9207C5.30301 23.9184 5.29794 23.9148 5.2918 23.9103C5.27983 23.9016 5.26031 23.8869 5.23728 23.8675L6.52409 22.3365ZM5.33006 23.9373C5.29426 23.9133 5.26756 23.892 5.25803 23.8844C5.25394 23.8811 5.24868 23.8768 5.25064 23.8784C5.25076 23.8785 5.25503 23.882 5.26078 23.8865L6.49518 22.3129C6.50266 22.3187 6.50863 22.3236 6.51041 22.325C6.51404 22.328 6.51043 22.325 6.50798 22.3231C6.50174 22.3181 6.47832 22.2994 6.44601 22.2776L5.33006 23.9373ZM5.12209 23.7544C4.93232 23.5353 4.75024 23.3115 4.57501 23.0846L6.158 21.8622C6.3124 22.0622 6.47079 22.2567 6.63386 22.445L5.12209 23.7544ZM6.18257 21.8954C6.17664 21.8871 6.17173 21.8804 6.16867 21.8763C6.16598 21.8727 6.16371 21.8698 6.16463 21.871C6.16468 21.871 6.16791 21.8753 6.17158 21.8802C6.1756 21.8855 6.18148 21.8935 6.18838 21.9033L4.55624 23.0592C4.56217 23.0675 4.56709 23.0742 4.57014 23.0783C4.57284 23.0819 4.57511 23.0848 4.57419 23.0836C4.57414 23.0836 4.5709 23.0793 4.56724 23.0744C4.56322 23.0691 4.55734 23.0611 4.55044 23.0514L6.18257 21.8954ZM4.57571 23.0857C3.8945 22.188 3.32716 21.2082 2.88642 20.1697L4.72747 19.3883C5.10385 20.2752 5.58808 21.1113 6.16891 21.8767L4.57571 23.0857ZM2.88281 20.1611C2.43907 19.0877 2.13638 17.9637 1.97518 16.816L3.95574 16.5378C4.09399 17.5221 4.35307 18.4826 4.73109 19.397L2.88281 20.1611ZM1.97393 16.8068C1.81911 15.6248 1.80232 14.4187 1.95405 13.2215L3.93818 13.473C3.8098 14.4859 3.82241 15.5196 3.95699 16.547L1.97393 16.8068ZM3.93502 13.4958C3.93547 13.4928 3.93562 13.4915 3.9354 13.4933C3.93512 13.4954 3.93478 13.4982 3.93394 13.5052L1.94823 13.2666C1.94949 13.2561 1.95272 13.2286 1.95721 13.1987L3.93502 13.4958ZM1.94744 13.2733C1.95082 13.2435 1.95479 13.2159 1.95638 13.2047L3.93662 13.4852C3.93556 13.4926 3.93509 13.496 3.93471 13.4988C3.93438 13.5012 3.93447 13.5008 3.93472 13.4985L1.94744 13.2733ZM1.9519 13.2411C1.95287 13.2319 1.95378 13.2242 1.95439 13.2191C1.95494 13.2145 1.95553 13.2099 1.95562 13.2092C1.95584 13.2074 1.95569 13.2086 1.95546 13.2106C1.9552 13.2127 1.95468 13.2173 1.95409 13.2232L3.94433 13.4206C3.94335 13.4305 3.94239 13.4389 3.94167 13.445C3.94098 13.4508 3.94035 13.4559 3.94008 13.458C3.93969 13.4611 3.9398 13.4603 3.93989 13.4595C3.94004 13.4582 3.94052 13.4543 3.9411 13.4487L1.9519 13.2411ZM3.94247 13.4378C3.94161 13.4452 3.94122 13.4485 3.94087 13.4517L1.9529 13.2327C1.95409 13.2219 1.95526 13.2119 1.95594 13.206L3.94247 13.4378ZM1.95623 13.2058C2.11834 12.0284 2.43441 10.8813 2.88977 9.78926L4.73572 10.559C4.34533 11.4952 4.07565 12.4755 3.93754 13.4786L1.95623 13.2058ZM2.89314 9.78128C3.12985 9.22717 3.40048 8.6883 3.70513 8.16738L5.43156 9.17706C5.16981 9.62462 4.9367 10.0886 4.73235 10.567L2.89314 9.78128ZM3.70417 8.16903C4.01333 7.63807 4.35682 7.13595 4.72062 6.65816L6.31184 7.86978C5.9893 8.29337 5.69365 8.72694 5.43253 9.1754L3.70417 8.16903ZM4.72532 6.65204C5.06352 6.21493 5.42786 5.79306 5.82439 5.39397L7.24313 6.80365C6.91153 7.13737 6.60113 7.49592 6.30715 7.8759L4.72532 6.65204ZM5.82327 5.39511C6.21486 4.99974 6.63043 4.63183 7.06404 4.29062L8.30084 5.86234C7.92817 6.1556 7.5746 6.46898 7.24425 6.80252L5.82327 5.39511ZM7.07161 4.28471C7.62119 3.86072 8.19597 3.48004 8.78624 3.13548L9.79449 4.86275C9.26974 5.16905 8.7674 5.50245 8.29327 5.86824L7.07161 4.28471ZM8.78605 3.13559C9.37671 2.79064 9.98995 2.47774 10.6211 2.20433L11.4161 4.03954C10.8618 4.27964 10.3198 4.55595 9.79468 4.86264L8.78605 3.13559ZM10.6284 2.20123C11.1307 1.98829 11.6509 1.8032 12.1925 1.65972L12.7046 3.59303C12.2682 3.70865 11.8381 3.86069 11.4089 4.04264L10.6284 2.20123ZM12.1936 1.65944C12.7241 1.51951 13.2604 1.4156 13.7922 1.33951L14.0755 3.31935C13.6091 3.38608 13.1495 3.47571 12.7036 3.59331L12.1936 1.65944ZM13.8024 1.3381C15.2448 1.14692 16.6912 1.18488 18.0981 1.36954L17.8378 3.35253C16.569 3.186 15.3017 3.15686 14.0652 3.32076L13.8024 1.3381ZM18.4775 0.744905C18.8 0.744905 19.0147 0.89801 19.075 0.942842C19.1162 0.973484 19.1464 1.00094 19.1617 1.01531C19.1701 1.02318 19.1769 1.02974 19.1811 1.03389C19.1851 1.03791 19.1883 1.04113 19.1888 1.04159L17.7685 2.44976C17.7689 2.45013 17.772 2.45325 17.776 2.45717C17.7801 2.46123 17.7867 2.46769 17.795 2.47547C17.8102 2.48966 17.8402 2.51695 17.8812 2.54745C17.941 2.59199 18.1554 2.74491 18.4775 2.74491V0.744905ZM18.4787 2.74568C18.1562 2.74568 17.9414 2.59257 17.8812 2.54774C17.84 2.5171 17.8098 2.48964 17.7944 2.47527C17.786 2.4674 17.7793 2.46084 17.7751 2.45669C17.771 2.45268 17.7678 2.44946 17.7674 2.44899L19.1876 1.04082C19.1873 1.04045 19.1842 1.03733 19.1802 1.03341C19.1761 1.02935 19.1695 1.02289 19.1612 1.01511C19.146 1.00092 19.116 0.973633 19.075 0.943136C19.0151 0.898592 18.8008 0.745678 18.4787 0.745678V2.74568ZM15.514 0.256376C15.9319 0.239752 16.3817 0.239338 16.8458 0.295113L16.6071 2.28082C16.292 2.24295 15.9603 2.2402 15.5935 2.2548L15.514 0.256376ZM16.8602 0.296959C17.1982 0.342594 17.5705 0.419367 17.9449 0.571363L17.1925 2.42444C17.0267 2.35714 16.8326 2.31138 16.5926 2.27897L16.8602 0.296959ZM17.9718 0.582764C18.1823 0.675461 18.3934 0.785732 18.6015 0.922487L17.5031 2.59385C17.4024 2.52769 17.2917 2.46862 17.1656 2.41304L17.9718 0.582764ZM18.5565 0.894602C18.5833 0.910254 18.6046 0.924181 18.61 0.927744C18.6109 0.928301 18.6116 0.928799 18.6121 0.929132C18.6128 0.929558 18.6129 0.929646 18.6132 0.929844C18.6137 0.930161 18.6132 0.929821 18.6123 0.929234C18.6105 0.928104 18.6052 0.924648 18.5979 0.920143L17.5485 2.62273C17.5377 2.61608 17.5289 2.61043 17.5238 2.60708C17.5212 2.60538 17.5189 2.60393 17.5177 2.60312C17.5172 2.60276 17.5164 2.60229 17.5162 2.60215C17.5161 2.60205 17.516 2.60198 17.5159 2.60192C17.5158 2.60187 17.5158 2.60185 17.5158 2.60186C17.5158 2.60187 17.516 2.60201 17.5164 2.60223C17.5167 2.60246 17.5173 2.60281 17.5179 2.60326C17.5193 2.60413 17.5214 2.6055 17.5241 2.60719C17.5294 2.61054 17.5377 2.61566 17.5481 2.62173L18.5565 0.894602ZM17.9438 2.76303C17.6719 2.72755 17.3993 2.6983 17.1252 2.67496L17.2949 0.682171C17.5981 0.707991 17.9004 0.740406 18.2026 0.779842L17.9438 2.76303ZM17.1241 2.67487C16.2643 2.60073 15.4055 2.59809 14.5606 2.68153L14.3641 0.691216C15.3445 0.594385 16.3273 0.598749 17.2959 0.682259L17.1241 2.67487ZM14.5594 2.68165C14.1372 2.72283 13.7148 2.78838 13.2907 2.87386L12.8956 0.913277C13.3775 0.816141 13.8674 0.739662 14.3652 0.691099L14.5594 2.68165ZM13.2912 2.87376C12.8772 2.9574 12.4766 3.05853 12.0899 3.18526L11.467 1.28473C11.9423 1.12895 12.4207 1.00922 12.8951 0.913378L13.2912 2.87376ZM12.0897 3.18533C11.7054 3.3112 11.3207 3.47245 10.9218 3.65547L10.0878 1.83765C10.5207 1.63905 10.9818 1.44364 11.4672 1.28467L12.0897 3.18533ZM10.9221 3.65535C10.543 3.82937 10.1664 4.02663 9.78779 4.23927L8.80842 2.49548C9.21906 2.26484 9.64561 2.04069 10.0876 1.83777L10.9221 3.65535ZM9.78761 4.23937C9.05089 4.65294 8.35207 5.128 7.70816 5.66448L6.42795 4.12791C7.17221 3.50782 7.97299 2.96445 8.80859 2.49537L9.78761 4.23937ZM7.70859 5.66413C7.08237 6.18646 6.51514 6.78017 6.00963 7.431L4.43012 6.20415C5.01873 5.44634 5.68492 4.74767 6.42752 4.12827L7.70859 5.66413ZM6.00947 7.4312C5.49581 8.09217 5.04501 8.79276 4.67019 9.53188L2.88644 8.62732C3.32332 7.76582 3.84439 6.95787 4.43027 6.20396L6.00947 7.4312ZM4.66957 9.5331C4.28744 10.2841 3.98332 11.0784 3.76354 11.8947L1.83232 11.3747C2.08765 10.4264 2.44125 9.50224 2.88706 8.6261L4.66957 9.5331ZM3.7637 11.8941C3.54433 12.7108 3.419 13.5591 3.3847 14.4114L1.38632 14.331C1.4263 13.3375 1.57256 12.3418 1.83216 11.3753L3.7637 11.8941ZM3.38469 14.4115C3.3503 15.2633 3.41561 16.1284 3.55877 16.9874L1.58598 17.3162C1.4235 16.3412 1.34566 15.3379 1.38632 14.3308L3.38469 14.4115ZM3.55865 16.9867C3.69755 17.8165 3.93346 18.6327 4.25328 19.4177L2.40112 20.1723C2.02841 19.2576 1.75053 18.2992 1.5861 17.3169L3.55865 16.9867ZM4.25344 19.4181C4.48004 19.9749 4.74997 20.5124 5.05998 21.0276L3.34627 22.0587C2.98386 21.4564 2.66726 20.8263 2.40096 20.172L4.25344 19.4181ZM3.46058 22.2129C3.2004 21.9245 2.95357 21.627 2.71839 21.3225L4.30123 20.1C4.50788 20.3675 4.72223 20.6257 4.94567 20.8734L3.46058 22.2129ZM4.30494 20.1048C4.30676 20.1072 4.3086 20.1096 4.31055 20.1121C4.31247 20.1147 4.3145 20.1173 4.31655 20.12L2.72629 21.3329C2.72447 21.3305 2.72263 21.3281 2.72068 21.3255C2.71876 21.323 2.71673 21.3204 2.71468 21.3177L4.30494 20.1048ZM2.72588 21.3323C2.09827 20.5083 1.56115 19.6093 1.15088 18.6376L2.99336 17.8596C3.33211 18.6619 3.7808 19.4166 4.31697 20.1206L2.72588 21.3323ZM1.14715 18.6287C0.789962 17.7593 0.541231 16.8468 0.40918 15.9137L2.38945 15.6335C2.49805 16.4008 2.70275 17.1522 2.9971 17.8686L1.14715 18.6287ZM0.407745 15.9031C0.295137 15.0414 0.295273 14.1706 0.405041 13.3104L2.38895 13.5636C2.30063 14.2557 2.30076 14.9543 2.39088 15.644L0.407745 15.9031ZM2.38765 13.5734C2.38668 13.5805 2.38571 13.5875 2.38474 13.5946C2.38377 13.6016 2.38281 13.6086 2.38184 13.6156L0.400541 13.3427C0.401511 13.3357 0.402482 13.3286 0.403449 13.3216C0.404416 13.3146 0.405381 13.3076 0.406345 13.3006L2.38765 13.5734ZM0.400116 13.3459C0.537903 12.3215 0.821281 11.333 1.21142 10.3972L3.0574 11.1669C2.72715 11.959 2.49441 12.7787 2.38227 13.6125L0.400116 13.3459ZM3.05777 11.166C3.05643 11.1692 3.05564 11.1711 3.05492 11.1729C3.05426 11.1745 3.05398 11.1752 3.05392 11.1753C3.05377 11.1757 3.05505 11.1725 3.05701 11.1672L1.1824 10.4702C1.19477 10.437 1.20717 10.4074 1.21105 10.3981L3.05777 11.166ZM1.19853 10.4296C1.68416 9.28001 2.32485 8.21447 3.06878 7.24065L4.65809 8.45478C4.00456 9.31025 3.45362 10.2308 3.04089 11.2079L1.19853 10.4296ZM4.66588 8.44444C4.66908 8.44014 4.67229 8.43571 4.67055 8.4381C4.67023 8.43855 4.6647 8.44616 4.65771 8.45535C4.64169 8.4764 4.61218 8.51362 4.57045 8.55571L3.15022 7.14754C3.10966 7.18845 3.08111 7.2245 3.06606 7.24429C3.06251 7.24895 3.05967 7.25278 3.05787 7.25521C3.05615 7.25755 3.05483 7.25935 3.0547 7.25954C3.05346 7.26123 3.05721 7.25607 3.06099 7.25099L4.66588 8.44444ZM3.07688 7.23018C3.08542 7.21941 3.09328 7.20992 3.09485 7.20802L4.63665 8.48194C4.63605 8.48266 4.63647 8.48215 4.63732 8.48112C4.63804 8.48024 4.64047 8.47726 4.6438 8.47307L3.07688 7.23018ZM3.0633 7.24826C3.06439 7.24679 3.06541 7.24543 3.06592 7.24475C3.06623 7.24433 3.06641 7.24409 3.06657 7.24387C3.06665 7.24377 3.0667 7.2437 3.06674 7.24365C3.06675 7.24363 3.06677 7.24361 3.06678 7.2436C3.06679 7.24359 3.06679 7.24358 3.06679 7.24358L4.67168 8.43703C4.67059 8.43849 4.66958 8.43986 4.66907 8.44054C4.66876 8.44095 4.66858 8.4412 4.66841 8.44142C4.66834 8.44151 4.66829 8.44159 4.66825 8.44164C4.66823 8.44166 4.66822 8.44168 4.66821 8.44169C4.6682 8.4417 4.6682 8.44171 4.6682 8.44171L3.0633 7.24826ZM4.67168 8.43703C4.67059 8.43849 4.66958 8.43986 4.66907 8.44054C4.66876 8.44095 4.66858 8.4412 4.66841 8.44142C4.66834 8.44151 4.66829 8.44159 4.66825 8.44164C4.66823 8.44166 4.66822 8.44168 4.66821 8.44169C4.6682 8.4417 4.6682 8.44171 4.6682 8.44171L3.0633 7.24826C3.06439 7.24679 3.06541 7.24543 3.06592 7.24475C3.06623 7.24433 3.06641 7.24409 3.06657 7.24387C3.06665 7.24377 3.0667 7.2437 3.06674 7.24365C3.06675 7.24363 3.06677 7.24361 3.06678 7.2436C3.06679 7.24359 3.06679 7.24358 3.06679 7.24358L4.67168 8.43703ZM3.07504 7.2328C3.59808 6.55722 4.16648 5.92887 4.76586 5.33867L6.16911 6.76375C5.62484 7.29969 5.11767 7.86146 4.65647 8.45717L3.07504 7.2328ZM4.76554 5.33898C5.36734 4.74586 6.00158 4.18319 6.67082 3.65903L7.90403 5.23357C7.29885 5.70755 6.72134 6.2195 6.16943 6.76344L4.76554 5.33898ZM7.90699 5.23124C7.90504 5.23278 7.90256 5.23476 7.89749 5.2388C7.89327 5.24217 7.88647 5.2476 7.87952 5.25309L6.64039 3.6832C6.64234 3.68166 6.64482 3.67968 6.64989 3.67564C6.65411 3.67227 6.66091 3.66684 6.66786 3.66135L7.90699 5.23124ZM6.64536 3.6793C7.2138 3.23642 7.80793 2.81321 8.43588 2.42797L9.48171 4.13274C8.93041 4.47095 8.39793 4.84921 7.87456 5.25698L6.64536 3.6793ZM8.43602 2.42789C9.04233 2.05607 9.67851 1.72317 10.3352 1.44002L11.1271 3.27659C10.562 3.52023 10.0104 3.80852 9.48157 4.13283L8.43602 2.42789ZM10.3409 1.43758C11.6045 0.902063 12.9355 0.552124 14.2784 0.367876L14.5503 2.34932C13.3676 2.51157 12.2093 2.81797 11.1214 3.27904L10.3409 1.43758ZM14.5621 2.34762C14.554 2.34883 14.5461 2.34998 14.5411 2.35069C14.5352 2.35154 14.5323 2.35196 14.53 2.3523L14.2345 0.374262C14.2426 0.373047 14.2505 0.371904 14.2555 0.371191C14.2614 0.37034 14.2643 0.369921 14.2666 0.369576L14.5621 2.34762ZM14.2491 0.372187C14.6602 0.316961 15.082 0.274439 15.512 0.25646L15.5955 2.25471C15.2417 2.26951 14.8827 2.30503 14.5154 2.35438L14.2491 0.372187ZM14.8268 2.07107C14.4087 2.11781 13.9916 2.18282 13.5785 2.2657L13.185 0.304785C13.6548 0.210516 14.1291 0.136602 14.6047 0.0834484L14.8268 2.07107ZM13.5771 2.26597C12.7567 2.42942 11.9522 2.66684 11.1785 2.9776L10.4331 1.1217C11.3246 0.763647 12.248 0.491468 13.1864 0.304516L13.5771 2.26597ZM11.1782 2.97773C10.4267 3.27925 9.69681 3.66972 8.99696 4.1196L7.91549 2.43721C8.70285 1.93109 9.54526 1.47794 10.4334 1.12157L11.1782 2.97773ZM8.99575 4.12037C8.64036 4.3481 8.29073 4.59741 7.93933 4.8618L6.73688 3.26365C7.11361 2.98019 7.50604 2.69958 7.9167 2.43644L8.99575 4.12037ZM7.94054 4.86089C7.60165 5.11668 7.27112 5.38243 6.94998 5.65846L5.6463 4.14174C6.00067 3.83715 6.36423 3.54491 6.73567 3.26456L7.94054 4.86089ZM6.95085 5.65771C6.30109 6.2175 5.68379 6.81627 5.11518 7.45042L3.62611 6.11526C4.25687 5.41179 4.93642 4.75332 5.64543 4.14249L6.95085 5.65771ZM5.1151 7.45052C3.9886 8.70655 3.08097 10.1391 2.52499 11.6982L0.641184 11.0264C1.29773 9.18528 2.35474 7.53283 3.6262 6.11517L5.1151 7.45052ZM2.52494 11.6983C2.2461 12.4799 2.07184 13.2959 2.01676 14.117L0.0212443 13.9831C0.0891971 12.9702 0.303367 11.9733 0.641234 11.0263L2.52494 11.6983ZM2.01672 14.1175C1.96166 14.932 2.04451 15.7616 2.23677 16.5822L0.289496 17.0384C0.0584958 16.0524 -0.0490124 15.0224 0.021279 13.9826L2.01672 14.1175ZM2.23677 16.5822C2.42157 17.3711 2.72077 18.1375 3.11014 18.8651L1.34672 19.8087C0.883376 18.9428 0.517894 18.0134 0.289495 17.0384L2.23677 16.5822ZM3.10984 18.8646C3.48871 19.5716 3.96895 20.238 4.51337 20.8667L3.00148 22.1759C2.38213 21.4607 1.81002 20.6733 1.34701 19.8093L3.10984 18.8646ZM4.51355 20.8669C4.90082 21.3143 5.32549 21.7319 5.77996 22.1217L4.47795 23.6398C3.95513 23.1915 3.459 22.7046 3.00129 22.1757L4.51355 20.8669ZM5.91341 22.2606C6.26149 22.7009 6.64157 23.1202 7.04594 23.5185L5.64243 24.9433C5.1848 24.4925 4.74853 24.012 4.3445 23.501L5.91341 22.2606ZM7.04574 23.5183C7.3459 23.8138 7.66666 24.0985 8.00448 24.3863L6.70733 25.9086C6.35185 25.6057 5.9909 25.2864 5.64262 24.9435L7.04574 23.5183ZM8.00479 24.3866C8.32884 24.6629 8.66569 24.929 9.01281 25.1875L7.81839 26.7916C7.44126 26.5108 7.06932 26.2173 6.70703 25.9084L8.00479 24.3866ZM9.01311 25.1877C9.69938 25.6991 10.4086 26.1617 11.1456 26.5487L10.2161 28.3195C9.36689 27.8737 8.56875 27.3508 7.81809 26.7914L9.01311 25.1877ZM11.1455 26.5486C11.8922 26.9404 12.6775 27.2635 13.484 27.5121L12.8949 29.4234C11.972 29.1389 11.0727 28.769 10.2162 28.3196L11.1455 26.5486ZM13.4838 27.512C13.8858 27.6358 14.2972 27.7382 14.715 27.8214L14.3242 29.7829C13.8452 29.6874 13.3675 29.5689 12.8952 29.4235L13.4838 27.512ZM14.715 27.8214C15.1172 27.9016 15.5298 27.9529 15.9518 27.9816L15.8158 29.977C15.3216 29.9433 14.8227 29.8822 14.3242 29.7829L14.715 27.8214ZM15.9525 27.9817C16.355 28.0094 16.7556 28.0061 17.1527 27.9692L17.3378 29.9606C16.828 30.0079 16.3194 30.0117 15.8151 29.9769L15.9525 27.9817ZM17.151 27.9693C17.5437 27.9321 17.9367 27.8636 18.3255 27.7674L18.8059 29.7089C18.3273 29.8273 17.8367 29.9133 17.3395 29.9604L17.151 27.9693ZM18.3243 27.7677C18.6967 27.6751 19.0687 27.5442 19.4438 27.3846L20.2272 29.2247C19.7774 29.4162 19.3037 29.585 18.8071 29.7086L18.3243 27.7677ZM19.4428 27.385C19.8236 27.2224 20.1912 27.041 20.5435 26.8375L21.544 28.5692C21.1156 28.8167 20.6753 29.0334 20.2282 29.2243L19.4428 27.385ZM20.5445 26.8369C21.2498 26.4304 21.9194 25.933 22.5656 25.3812L23.8644 26.9022C23.1533 27.5093 22.3829 28.0858 21.543 28.5698L20.5445 26.8369ZM22.5661 25.3808C22.8952 25.1002 23.2117 24.8143 23.5132 24.5175L24.9162 25.9429C24.5739 26.2798 24.2211 26.598 23.8639 26.9026L22.5661 25.3808ZM23.5131 24.5177C23.8302 24.2054 24.1381 23.8895 24.4317 23.567L25.9105 24.9135C25.5867 25.2692 25.2523 25.6119 24.9163 25.9428L23.5131 24.5177ZM24.4314 23.5673C24.52 23.47 24.608 23.3712 24.7001 23.268C24.7911 23.166 24.8859 23.0597 24.9826 22.9536L26.4607 24.3009C26.3724 24.3977 26.2845 24.4963 26.1927 24.5992C26.102 24.7009 26.0072 24.8072 25.9108 24.9132L24.4314 23.5673ZM24.9812 22.9551C24.7208 23.242 24.6445 23.7652 25.0115 24.1354L26.4318 22.7273C26.9079 23.2075 26.8231 23.9017 26.4621 24.2994L24.9812 22.9551ZM25.0115 24.1354C25.3421 24.4688 25.8947 24.4864 26.2427 24.1302L24.8122 22.7325C25.2654 22.2687 25.9968 22.2885 26.4318 22.7273L25.0115 24.1354ZM26.243 24.13C25.7439 24.6411 25.2328 25.1619 24.7046 25.669L23.3194 24.2263C23.8219 23.7439 24.3128 23.244 24.8119 22.7328L26.243 24.13ZM24.7045 25.6691C24.4382 25.9247 24.167 26.166 23.9028 26.3964L22.5883 24.889C22.8441 24.6659 23.0874 24.4491 23.3195 24.2263L24.7045 25.6691ZM23.9045 26.3948C23.6244 26.6402 23.3366 26.8806 23.0391 27.1132L21.807 25.5378C22.0713 25.3311 22.3304 25.1149 22.5866 24.8905L23.9045 26.3948ZM21.792 25.5497C21.8015 25.542 21.8098 25.5355 21.816 25.5306C21.8219 25.526 21.8275 25.5217 21.8302 25.5196C21.8318 25.5183 21.8328 25.5176 21.8336 25.517C21.8343 25.5164 21.8346 25.5162 21.8345 25.5163C21.8344 25.5163 21.8322 25.518 21.8288 25.5208L23.0908 27.0724C23.0813 27.0801 23.073 27.0867 23.0668 27.0915C23.0609 27.0962 23.0553 27.1005 23.0526 27.1025C23.051 27.1038 23.05 27.1045 23.0492 27.1052C23.0485 27.1058 23.0482 27.1059 23.0483 27.1059C23.0484 27.1058 23.0506 27.1041 23.054 27.1013L21.792 25.5497ZM23.0725 27.087C22.6204 27.4374 22.1487 27.7656 21.6608 28.0668L20.6101 26.3651C21.036 26.1021 21.4495 25.8145 21.8471 25.5063L23.0725 27.087ZM21.6611 28.0667C21.1535 28.3803 20.6259 28.6478 20.0888 28.8771L19.3036 27.0376C19.7593 26.8431 20.1966 26.6205 20.6098 26.3652L21.6611 28.0667ZM19.6962 26.9574C19.6962 26.9574 19.6962 26.9574 19.6962 26.9574C19.6962 26.9574 19.6962 26.9574 19.6962 26.9574H19.6962H19.6962C19.6962 26.9574 19.6962 26.9574 19.6962 26.9574C19.6962 26.9574 19.6962 26.9574 19.6962 26.9574C19.6962 26.9574 19.6962 26.9574 19.6962 26.9574H19.6962H19.6962C19.6962 26.9574 19.6962 26.9574 19.6962 26.9574C19.6962 26.9574 19.6962 26.9574 19.6962 26.9574C19.6962 26.9574 19.6962 26.9574 19.6962 26.9574H19.6962H19.6962H19.6962C19.6962 26.9574 19.6962 26.9574 19.6962 26.9574C19.6962 26.9574 19.6962 26.9574 19.6962 26.9574C19.6962 26.9574 19.6962 26.9574 19.6963 26.9574H19.6963H19.6963C19.6963 26.9574 19.6963 26.9574 19.6963 26.9574C19.6963 26.9574 19.6963 26.9574 19.6963 26.9574C19.6963 26.9574 19.6963 26.9574 19.6963 26.9574H19.6963H19.6963C19.6963 26.9574 19.6963 26.9574 19.6963 26.9574C19.6963 26.9574 19.6963 26.9574 19.6963 26.9574C19.6963 26.9574 19.6963 26.9574 19.6963 26.9574C19.6963 26.9574 19.6963 26.9574 19.6963 26.9574H19.6963H19.6963C19.6963 26.9574 19.6963 26.9574 19.6963 26.9574C19.6963 26.9574 19.6963 26.9574 19.6963 26.9574C19.6963 26.9574 19.6963 26.9574 19.6963 26.9574H19.6963H19.6963C19.6963 26.9574 19.6963 26.9574 19.6963 26.9574C19.6963 26.9574 19.6963 26.9574 19.6963 26.9574C19.6963 26.9574 19.6963 26.9574 19.6963 26.9574H19.6963H19.6963H19.6963C19.6963 26.9574 19.6963 26.9574 19.6963 26.9574C19.6963 26.9574 19.6963 26.9574 19.6963 26.9574C19.6963 26.9574 19.6963 26.9574 19.6963 26.9574H19.6963H19.6963C19.6963 26.9574 19.6963 26.9574 19.6963 26.9574C19.6963 26.9574 19.6963 26.9574 19.6963 26.9574C19.6963 26.9574 19.6963 26.9574 19.6963 26.9574C19.6963 26.9574 19.6963 26.9574 19.6963 26.9574H19.6963H19.6963C19.6963 26.9574 19.6963 26.9574 19.6963 26.9574C19.6963 26.9574 19.6963 26.9574 19.6963 26.9574C19.6963 26.9574 19.6963 26.9574 19.6963 26.9574H19.6963H19.6963H19.6963C19.6963 26.9574 19.6963 26.9574 19.6963 26.9574C19.6963 26.9574 19.6963 26.9574 19.6963 26.9574C19.6963 26.9574 19.6963 26.9574 19.6964 26.9574H19.6964H19.6964C19.6964 26.9574 19.6964 26.9574 19.6964 26.9574C19.6964 26.9574 19.6964 26.9574 19.6964 26.9574C19.6964 26.9574 19.6964 26.9574 19.6964 26.9574C19.6964 26.9574 19.6964 26.9574 19.6964 26.9574H19.6964H19.6964C19.6964 26.9574 19.6964 26.9574 19.6964 26.9574C19.6964 26.9574 19.6964 26.9574 19.6964 26.9574C19.6964 26.9574 19.6964 26.9574 19.6964 26.9574C19.6964 26.9574 19.6964 26.9574 19.6964 26.9574H19.6964H19.6964C19.6964 26.9574 19.6964 26.9574 19.6964 26.9574C19.6964 26.9574 19.6964 26.9574 19.6964 26.9574C19.6964 26.9574 19.6964 26.9574 19.6964 26.9574C19.6964 26.9574 19.6964 26.9574 19.6964 26.9574H19.6964H19.6964H19.6964C19.6964 26.9574 19.6964 26.9574 19.6964 26.9574C19.6964 26.9574 19.6964 26.9574 19.6964 26.9574C19.6964 26.9574 19.6964 26.9574 19.6964 26.9574H19.6964H19.6964H19.6964C19.6964 26.9574 19.6964 26.9574 19.6964 26.9574C19.6964 26.9574 19.6964 26.9574 19.6964 26.9574C19.6964 26.9574 19.6964 26.9574 19.6964 26.9574C19.6964 26.9574 19.6964 26.9574 19.6964 26.9574H19.6964H19.6964H19.6964C19.6964 26.9574 19.6964 26.9574 19.6964 26.9574C19.6964 26.9574 19.6964 26.9574 19.6964 26.9574C19.6964 26.9574 19.6964 26.9574 19.6964 26.9574C19.6964 26.9574 19.6964 26.9574 19.6964 26.9574H19.6964H19.6964C19.6964 26.9574 19.6964 26.9574 19.6964 26.9574C19.6964 26.9574 19.6964 26.9574 19.6964 26.9574C19.6964 26.9574 19.6964 26.9574 19.6964 26.9574C19.6964 26.9574 19.6964 26.9574 19.6964 26.9574C19.6964 26.9574 19.6964 26.9574 19.6964 26.9574H19.6965H19.6965H19.6965C19.6965 26.9574 19.6965 26.9574 19.6965 26.9574C19.6965 26.9574 19.6965 26.9574 19.6965 26.9574C19.6965 26.9574 19.6965 26.9574 19.6965 26.9574C19.6965 26.9574 19.6965 26.9574 19.6965 26.9574H19.6965H19.6965H19.6965C19.6965 26.9574 19.6965 26.9574 19.6965 26.9574C19.6965 26.9574 19.6965 26.9574 19.6965 26.9574C19.6965 26.9574 19.6965 26.9574 19.6965 26.9574C19.6965 26.9574 19.6965 26.9574 19.6965 26.9574C19.6965 26.9574 19.6965 26.9574 19.6965 26.9574H19.6965H19.6965H19.6965H19.6965C19.6965 26.9574 19.6965 26.9574 19.6965 26.9574C19.6965 26.9574 19.6965 26.9574 19.6965 26.9574C19.6965 26.9574 19.6965 26.9574 19.6965 26.9574C19.6965 26.9574 19.6965 26.9574 19.6965 26.9574C19.6965 26.9574 19.6965 26.9574 19.6965 26.9574H19.6965H19.6965H19.6965C19.6965 26.9574 19.6965 26.9574 19.6965 26.9574C19.6965 26.9574 19.6965 26.9574 19.6965 26.9574C19.6965 26.9574 19.6965 26.9574 19.6965 26.9574C19.6965 26.9574 19.6965 26.9574 19.6965 26.9574C19.6965 26.9574 19.6965 26.9574 19.6965 26.9574C19.6965 26.9574 19.6965 26.9574 19.6965 26.9574H19.6965H19.6965H19.6965H19.6965C19.6965 26.9574 19.6965 26.9574 19.6965 26.9574C19.6965 26.9574 19.6965 26.9574 19.6965 26.9574C19.6965 26.9574 19.6965 26.9574 19.6965 26.9574C19.6965 26.9574 19.6965 26.9574 19.6965 26.9574C19.6965 26.9574 19.6965 26.9574 19.6965 26.9574C19.6965 26.9574 19.6965 26.9574 19.6965 26.9574C19.6965 26.9574 19.6965 26.9574 19.6965 26.9574H19.6965H19.6965H19.6965H19.6966H19.6966C19.6966 26.9574 19.6966 26.9574 19.6966 26.9574C19.6966 26.9574 19.6966 26.9574 19.6966 26.9574C19.6966 26.9574 19.6966 26.9574 19.6966 26.9574C19.6966 26.9574 19.6966 26.9574 19.6966 26.9574C19.6966 26.9574 19.6966 26.9574 19.6966 26.9574C19.6966 26.9574 19.6966 26.9574 19.6966 26.9574C19.6966 26.9574 19.6966 26.9574 19.6966 26.9574C19.6966 26.9574 19.6966 26.9574 19.6966 26.9574H19.6966H19.6966H19.6966H19.6966H19.6966H19.6966C19.6966 26.9574 19.6966 26.9574 19.6966 26.9574C19.6966 26.9574 19.6966 26.9574 19.6966 26.9574C19.6966 26.9574 19.6966 26.9574 19.6966 26.9574C19.6966 26.9574 19.6966 26.9574 19.6966 26.9574C19.6966 26.9574 19.6966 26.9574 19.6966 26.9574C19.6966 26.9574 19.6966 26.9574 19.6966 26.9574C19.6966 26.9574 19.6966 26.9574 19.6966 26.9574C19.6966 26.9574 19.6966 26.9574 19.6966 26.9574C19.6966 26.9574 19.6966 26.9574 19.6966 26.9574C19.6966 26.9574 19.6966 26.9574 19.6966 26.9574C19.6966 26.9574 19.6966 26.9574 19.6966 26.9574C19.6966 26.9574 19.6966 26.9574 19.6966 26.9574C19.6966 26.9574 19.6966 26.9574 19.6966 26.9574C19.6966 26.9574 19.6966 26.9574 19.6966 26.9574H19.6966H19.6966H19.6966H19.6966H19.6966H19.6966H19.6966H19.6966H19.6966H19.6966H19.6966H19.6966H19.6966C19.6966 26.9574 19.6966 26.9574 19.6966 26.9574C19.6966 26.9574 19.6966 26.9574 19.6966 26.9574C19.6966 26.9574 19.6966 26.9574 19.6966 26.9574C19.6966 26.9574 19.6966 26.9574 19.6966 26.9574C19.6966 26.9574 19.6966 26.9574 19.6966 26.9574C19.6966 26.9574 19.6966 26.9574 19.6966 26.9574C19.6966 26.9574 19.6966 26.9574 19.6966 26.9574C19.6966 26.9574 19.6966 26.9574 19.6966 26.9574C19.6967 26.9574 19.6967 26.9574 19.6967 26.9574C19.6967 26.9574 19.6967 26.9574 19.6967 26.9574C19.6967 26.9574 19.6967 26.9574 19.6967 26.9574C19.6967 26.9574 19.6967 26.9574 19.6967 26.9574C19.6967 26.9574 19.6967 26.9574 19.6967 26.9574C19.6967 26.9574 19.6967 26.9574 19.6967 26.9574C19.6967 26.9574 19.6967 26.9574 19.6967 26.9574H19.6967H19.6967H19.6967H19.6967H19.6967H19.6967H19.6967H19.6967H19.6967H19.6967H19.6967H19.6967C19.6967 26.9574 19.6967 26.9574 19.6967 26.9574C19.6967 26.9574 19.6967 26.9574 19.6967 26.9574C19.6967 26.9574 19.6967 26.9574 19.6967 26.9574C19.6967 26.9574 19.6967 26.9574 19.6967 26.9574C19.6967 26.9574 19.6967 26.9574 19.6967 26.9574C19.6967 26.9574 19.6967 26.9574 19.6967 26.9574C19.6967 26.9574 19.6967 26.9574 19.6967 26.9574C19.6967 26.9574 19.6967 26.9574 19.6967 26.9574C19.6967 26.9574 19.6967 26.9574 19.6967 26.9574C19.6967 26.9574 19.6967 26.9574 19.6967 26.9574C19.6967 26.9574 19.6967 26.9574 19.6967 26.9574C19.6967 26.9574 19.6967 26.9574 19.6967 26.9574C19.6967 26.9574 19.6967 26.9574 19.6967 26.9574H19.6967H19.6967H19.6967H19.6967C19.6967 26.9574 19.6967 26.9574 19.6967 26.9574C19.6967 26.9574 19.6967 26.9574 19.6967 26.9574C19.6967 26.9574 19.6967 26.9574 19.6967 26.9574C19.6967 26.9574 19.6967 26.9574 19.6967 26.9574C19.6967 26.9574 19.6967 26.9574 19.6967 26.9574C19.6967 26.9574 19.6967 26.9574 19.6967 26.9574C19.6967 26.9574 19.6967 26.9574 19.6967 26.9574H19.6967H19.6967H19.6967C19.6967 26.9574 19.6967 26.9574 19.6967 26.9574C19.6967 26.9574 19.6967 26.9574 19.6967 26.9574C19.6967 26.9574 19.6967 26.9574 19.6967 26.9574C19.6967 26.9574 19.6967 26.9574 19.6967 26.9574C19.6967 26.9574 19.6967 26.9574 19.6967 26.9574C19.6967 26.9574 19.6967 26.9574 19.6967 26.9574H19.6968H19.6968C19.6968 26.9574 19.6968 26.9574 19.6968 26.9574C19.6968 26.9574 19.6968 26.9574 19.6968 26.9574C19.6968 26.9574 19.6968 26.9574 19.6968 26.9574C19.6968 26.9574 19.6968 26.9574 19.6968 26.9574C19.6968 26.9574 19.6968 26.9574 19.6968 26.9574H19.6968H19.6968C19.6968 26.9574 19.6968 26.9574 19.6968 26.9574C19.6968 26.9574 19.6968 26.9574 19.6968 26.9574C19.6968 26.9574 19.6968 26.9574 19.6968 26.9574C19.6968 26.9574 19.6968 26.9574 19.6968 26.9574H19.6968C19.6968 26.9574 19.6968 26.9574 19.6968 26.9574C19.6968 26.9574 19.6968 26.9574 19.6968 26.9574C19.6968 26.9574 19.6968 26.9574 19.6968 26.9574C19.6968 26.9574 19.6968 26.9574 19.6968 26.9574H19.6968H19.6968C19.6968 26.9574 19.6968 26.9574 19.6968 26.9574C19.6968 26.9574 19.6968 26.9574 19.6968 26.9574C19.6968 26.9574 19.6968 26.9574 19.6968 26.9574H19.6968C19.6968 26.9574 19.6968 26.9574 19.6968 26.9574C19.6968 26.9574 19.6968 26.9574 19.6968 26.9574C19.6968 26.9574 19.6968 26.9574 19.6968 26.9574H19.6968C19.6968 26.9574 19.6968 26.9574 19.6968 26.9574C19.6968 26.9574 19.6968 26.9574 19.6968 26.9574C19.6968 26.9574 19.6968 26.9574 19.6968 26.9574H19.6968C19.6968 26.9574 19.6968 26.9574 19.6968 26.9574C19.6968 26.9574 19.6968 26.9574 19.6968 26.9574H19.6968H19.6968C19.6968 26.9574 19.6968 26.9574 19.6968 26.9574C19.6968 26.9574 19.6968 26.9574 19.6968 26.9574H19.6968C19.6968 26.9574 19.6968 26.9574 19.6968 26.9574C19.6968 26.9574 19.6968 26.9574 19.6968 26.9574H19.6968C19.6968 26.9574 19.6968 26.9574 19.6968 26.9574C19.6968 26.9574 19.6968 26.9574 19.6968 26.9574H19.6968C19.6968 26.9574 19.6968 26.9574 19.6968 26.9574C19.6968 26.9574 19.6968 26.9574 19.6968 26.9574H19.6968C19.6968 26.9574 19.6968 26.9574 19.6968 26.9574H19.6968C19.6968 26.9574 19.6968 26.9574 19.6968 26.9574C19.6968 26.9574 19.6968 26.9574 19.6968 26.9574H19.6968C19.6968 26.9574 19.6968 26.9574 19.6969 26.9574H19.6969C19.6969 26.9574 19.6969 26.9574 19.6969 26.9574C19.6969 26.9574 19.6969 26.9574 19.6969 26.9574C19.6969 26.9574 19.6969 26.9574 19.6969 26.9574C19.6969 26.9574 19.6969 26.9574 19.6969 26.9574H19.6969C19.6969 26.9574 19.6969 26.9574 19.6969 26.9574H19.6969C19.6969 26.9574 19.6969 26.9574 19.6969 26.9574H19.6969C19.6969 26.9574 19.6969 26.9574 19.6969 26.9574H19.6969C19.6969 26.9574 19.6969 26.9574 19.6969 26.9574C19.6969 26.9574 19.6969 26.9574 19.6969 26.9574C19.6969 26.9574 19.6969 26.9574 19.6969 26.9574C19.6969 26.9574 19.6969 26.9574 19.6969 26.9574H19.6969C19.6969 26.9574 19.6969 26.9574 19.6969 26.9574C19.6969 26.9574 19.6969 26.9574 19.6969 26.9574C19.6969 26.9574 19.6969 26.9574 19.6969 26.9574C19.6969 26.9574 19.6969 26.9574 19.6969 26.9574H19.6969C19.6969 26.9574 19.6969 26.9574 19.6969 26.9574C19.6969 26.9574 19.6969 26.9574 19.6969 26.9574C19.6969 26.9574 19.6969 26.9574 19.6969 26.9574H19.6969C19.6969 26.9574 19.6969 26.9574 19.6969 26.9574C19.6969 26.9574 19.6969 26.9574 19.6969 26.9574C19.6969 26.9574 19.6969 26.9574 19.6969 26.9574H19.6969C19.6969 26.9574 19.6969 26.9574 19.6969 26.9574C19.6969 26.9574 19.6969 26.9574 19.6969 26.9574C19.6969 26.9574 19.6969 26.9574 19.6969 26.9574C19.6969 26.9574 19.6969 26.9574 19.6969 26.9574C19.6969 26.9574 19.6969 26.9574 19.6969 26.9574C19.6969 26.9574 19.6969 26.9574 19.6969 26.9574C19.6969 26.9574 19.6969 26.9574 19.6969 26.9574H19.6969C19.6969 26.9574 19.6969 26.9574 19.6969 26.9574C19.6969 26.9574 19.6969 26.9574 19.6969 26.9574C19.6969 26.9574 19.6969 26.9574 19.6969 26.9574C19.6969 26.9574 19.6969 26.9574 19.6969 26.9574C19.6969 26.9574 19.6969 26.9574 19.6969 26.9574C19.6969 26.9574 19.6969 26.9574 19.6969 26.9574H19.6969H19.6969C19.6969 26.9574 19.6969 26.9574 19.6969 26.9574C19.6969 26.9574 19.6969 26.9574 19.6969 26.9574C19.6969 26.9574 19.6969 26.9574 19.6969 26.9574C19.6969 26.9574 19.6969 26.9574 19.6969 26.9574H19.6969C19.697 26.9574 19.697 26.9574 19.697 26.9574C19.697 26.9574 19.697 26.9574 19.697 26.9574H19.697H19.697C19.697 26.9574 19.697 26.9574 19.697 26.9574C19.697 26.9574 19.697 26.9574 19.697 26.9574C19.697 26.9574 19.697 26.9574 19.697 26.9574H19.697C19.697 26.9574 19.697 26.9574 19.697 26.9574H19.697C19.697 26.9574 19.697 26.9574 19.697 26.9574C19.697 26.9574 19.697 26.9574 19.697 26.9574C19.697 26.9574 19.697 26.9574 19.697 26.9574C19.697 26.9574 19.697 26.9574 19.697 26.9574C19.697 26.9574 19.697 26.9574 19.697 26.9574H19.697C19.697 26.9574 19.697 26.9574 19.697 26.9574C19.697 26.9574 19.697 26.9574 19.697 26.9574C19.697 26.9574 19.697 26.9574 19.697 26.9574C19.697 26.9574 19.697 26.9574 19.697 27.9574C19.697 28.9574 19.697 28.9574 19.697 28.9574C19.697 28.9574 19.697 28.9574 19.697 28.9574C19.697 28.9574 19.697 28.9574 19.697 28.9574C19.697 28.9574 19.697 28.9574 19.697 28.9574H19.697C19.697 28.9574 19.697 28.9574 19.697 28.9574C19.697 28.9574 19.697 28.9574 19.697 28.9574C19.697 28.9574 19.697 28.9574 19.697 28.9574C19.697 28.9574 19.697 28.9574 19.697 28.9574C19.697 28.9574 19.697 28.9574 19.697 28.9574H19.697C19.697 28.9574 19.697 28.9574 19.697 28.9574H19.697C19.697 28.9574 19.697 28.9574 19.697 28.9574C19.697 28.9574 19.697 28.9574 19.697 28.9574C19.697 28.9574 19.697 28.9574 19.697 28.9574H19.697H19.697C19.697 28.9574 19.697 28.9574 19.697 28.9574C19.697 28.9574 19.697 28.9574 19.6969 28.9574H19.6969C19.6969 28.9574 19.6969 28.9574 19.6969 28.9574C19.6969 28.9574 19.6969 28.9574 19.6969 28.9574C19.6969 28.9574 19.6969 28.9574 19.6969 28.9574C19.6969 28.9574 19.6969 28.9574 19.6969 28.9574H19.6969H19.6969C19.6969 28.9574 19.6969 28.9574 19.6969 28.9574C19.6969 28.9574 19.6969 28.9574 19.6969 28.9574C19.6969 28.9574 19.6969 28.9574 19.6969 28.9574C19.6969 28.9574 19.6969 28.9574 19.6969 28.9574C19.6969 28.9574 19.6969 28.9574 19.6969 28.9574C19.6969 28.9574 19.6969 28.9574 19.6969 28.9574H19.6969C19.6969 28.9574 19.6969 28.9574 19.6969 28.9574C19.6969 28.9574 19.6969 28.9574 19.6969 28.9574C19.6969 28.9574 19.6969 28.9574 19.6969 28.9574C19.6969 28.9574 19.6969 28.9574 19.6969 28.9574C19.6969 28.9574 19.6969 28.9574 19.6969 28.9574C19.6969 28.9574 19.6969 28.9574 19.6969 28.9574C19.6969 28.9574 19.6969 28.9574 19.6969 28.9574H19.6969C19.6969 28.9574 19.6969 28.9574 19.6969 28.9574C19.6969 28.9574 19.6969 28.9574 19.6969 28.9574C19.6969 28.9574 19.6969 28.9574 19.6969 28.9574H19.6969C19.6969 28.9574 19.6969 28.9574 19.6969 28.9574C19.6969 28.9574 19.6969 28.9574 19.6969 28.9574C19.6969 28.9574 19.6969 28.9574 19.6969 28.9574H19.6969C19.6969 28.9574 19.6969 28.9574 19.6969 28.9574C19.6969 28.9574 19.6969 28.9574 19.6969 28.9574C19.6969 28.9574 19.6969 28.9574 19.6969 28.9574C19.6969 28.9574 19.6969 28.9574 19.6969 28.9574H19.6969C19.6969 28.9574 19.6969 28.9574 19.6969 28.9574C19.6969 28.9574 19.6969 28.9574 19.6969 28.9574C19.6969 28.9574 19.6969 28.9574 19.6969 28.9574C19.6969 28.9574 19.6969 28.9574 19.6969 28.9574H19.6969C19.6969 28.9574 19.6969 28.9574 19.6969 28.9574H19.6969C19.6969 28.9574 19.6969 28.9574 19.6969 28.9574H19.6969C19.6969 28.9574 19.6969 28.9574 19.6969 28.9574H19.6969C19.6969 28.9574 19.6969 28.9574 19.6969 28.9574C19.6969 28.9574 19.6969 28.9574 19.6969 28.9574C19.6969 28.9574 19.6969 28.9574 19.6969 28.9574C19.6969 28.9574 19.6969 28.9574 19.6969 28.9574H19.6969C19.6968 28.9574 19.6968 28.9574 19.6968 28.9574H19.6968C19.6968 28.9574 19.6968 28.9574 19.6968 28.9574C19.6968 28.9574 19.6968 28.9574 19.6968 28.9574H19.6968C19.6968 28.9574 19.6968 28.9574 19.6968 28.9574H19.6968C19.6968 28.9574 19.6968 28.9574 19.6968 28.9574C19.6968 28.9574 19.6968 28.9574 19.6968 28.9574H19.6968C19.6968 28.9574 19.6968 28.9574 19.6968 28.9574C19.6968 28.9574 19.6968 28.9574 19.6968 28.9574H19.6968C19.6968 28.9574 19.6968 28.9574 19.6968 28.9574C19.6968 28.9574 19.6968 28.9574 19.6968 28.9574H19.6968C19.6968 28.9574 19.6968 28.9574 19.6968 28.9574C19.6968 28.9574 19.6968 28.9574 19.6968 28.9574H19.6968H19.6968C19.6968 28.9574 19.6968 28.9574 19.6968 28.9574C19.6968 28.9574 19.6968 28.9574 19.6968 28.9574H19.6968C19.6968 28.9574 19.6968 28.9574 19.6968 28.9574C19.6968 28.9574 19.6968 28.9574 19.6968 28.9574C19.6968 28.9574 19.6968 28.9574 19.6968 28.9574H19.6968C19.6968 28.9574 19.6968 28.9574 19.6968 28.9574C19.6968 28.9574 19.6968 28.9574 19.6968 28.9574C19.6968 28.9574 19.6968 28.9574 19.6968 28.9574H19.6968C19.6968 28.9574 19.6968 28.9574 19.6968 28.9574C19.6968 28.9574 19.6968 28.9574 19.6968 28.9574C19.6968 28.9574 19.6968 28.9574 19.6968 28.9574H19.6968H19.6968C19.6968 28.9574 19.6968 28.9574 19.6968 28.9574C19.6968 28.9574 19.6968 28.9574 19.6968 28.9574C19.6968 28.9574 19.6968 28.9574 19.6968 28.9574C19.6968 28.9574 19.6968 28.9574 19.6968 28.9574H19.6968C19.6968 28.9574 19.6968 28.9574 19.6968 28.9574C19.6968 28.9574 19.6968 28.9574 19.6968 28.9574C19.6968 28.9574 19.6968 28.9574 19.6968 28.9574C19.6968 28.9574 19.6968 28.9574 19.6968 28.9574H19.6968H19.6968C19.6968 28.9574 19.6968 28.9574 19.6968 28.9574C19.6968 28.9574 19.6968 28.9574 19.6968 28.9574C19.6968 28.9574 19.6968 28.9574 19.6968 28.9574C19.6968 28.9574 19.6968 28.9574 19.6968 28.9574C19.6968 28.9574 19.6968 28.9574 19.6968 28.9574H19.6968H19.6967C19.6967 28.9574 19.6967 28.9574 19.6967 28.9574C19.6967 28.9574 19.6967 28.9574 19.6967 28.9574C19.6967 28.9574 19.6967 28.9574 19.6967 28.9574C19.6967 28.9574 19.6967 28.9574 19.6967 28.9574C19.6967 28.9574 19.6967 28.9574 19.6967 28.9574C19.6967 28.9574 19.6967 28.9574 19.6967 28.9574H19.6967H19.6967H19.6967C19.6967 28.9574 19.6967 28.9574 19.6967 28.9574C19.6967 28.9574 19.6967 28.9574 19.6967 28.9574C19.6967 28.9574 19.6967 28.9574 19.6967 28.9574C19.6967 28.9574 19.6967 28.9574 19.6967 28.9574C19.6967 28.9574 19.6967 28.9574 19.6967 28.9574C19.6967 28.9574 19.6967 28.9574 19.6967 28.9574C19.6967 28.9574 19.6967 28.9574 19.6967 28.9574H19.6967H19.6967H19.6967H19.6967C19.6967 28.9574 19.6967 28.9574 19.6967 28.9574C19.6967 28.9574 19.6967 28.9574 19.6967 28.9574C19.6967 28.9574 19.6967 28.9574 19.6967 28.9574C19.6967 28.9574 19.6967 28.9574 19.6967 28.9574C19.6967 28.9574 19.6967 28.9574 19.6967 28.9574C19.6967 28.9574 19.6967 28.9574 19.6967 28.9574C19.6967 28.9574 19.6967 28.9574 19.6967 28.9574C19.6967 28.9574 19.6967 28.9574 19.6967 28.9574C19.6967 28.9574 19.6967 28.9574 19.6967 28.9574C19.6967 28.9574 19.6967 28.9574 19.6967 28.9574C19.6967 28.9574 19.6967 28.9574 19.6967 28.9574C19.6967 28.9574 19.6967 28.9574 19.6967 28.9574C19.6967 28.9574 19.6967 28.9574 19.6967 28.9574H19.6967H19.6967H19.6967H19.6967H19.6967H19.6967H19.6967H19.6967H19.6967H19.6967H19.6967H19.6967C19.6967 28.9574 19.6967 28.9574 19.6967 28.9574C19.6967 28.9574 19.6967 28.9574 19.6967 28.9574C19.6967 28.9574 19.6967 28.9574 19.6967 28.9574C19.6967 28.9574 19.6967 28.9574 19.6967 28.9574C19.6967 28.9574 19.6967 28.9574 19.6967 28.9574C19.6967 28.9574 19.6967 28.9574 19.6967 28.9574C19.6967 28.9574 19.6967 28.9574 19.6966 28.9574C19.6966 28.9574 19.6966 28.9574 19.6966 28.9574C19.6966 28.9574 19.6966 28.9574 19.6966 28.9574C19.6966 28.9574 19.6966 28.9574 19.6966 28.9574C19.6966 28.9574 19.6966 28.9574 19.6966 28.9574C19.6966 28.9574 19.6966 28.9574 19.6966 28.9574C19.6966 28.9574 19.6966 28.9574 19.6966 28.9574C19.6966 28.9574 19.6966 28.9574 19.6966 28.9574C19.6966 28.9574 19.6966 28.9574 19.6966 28.9574H19.6966H19.6966H19.6966H19.6966H19.6966H19.6966H19.6966H19.6966H19.6966H19.6966H19.6966H19.6966H19.6966C19.6966 28.9574 19.6966 28.9574 19.6966 28.9574C19.6966 28.9574 19.6966 28.9574 19.6966 28.9574C19.6966 28.9574 19.6966 28.9574 19.6966 28.9574C19.6966 28.9574 19.6966 28.9574 19.6966 28.9574C19.6966 28.9574 19.6966 28.9574 19.6966 28.9574C19.6966 28.9574 19.6966 28.9574 19.6966 28.9574C19.6966 28.9574 19.6966 28.9574 19.6966 28.9574C19.6966 28.9574 19.6966 28.9574 19.6966 28.9574C19.6966 28.9574 19.6966 28.9574 19.6966 28.9574C19.6966 28.9574 19.6966 28.9574 19.6966 28.9574C19.6966 28.9574 19.6966 28.9574 19.6966 28.9574C19.6966 28.9574 19.6966 28.9574 19.6966 28.9574C19.6966 28.9574 19.6966 28.9574 19.6966 28.9574C19.6966 28.9574 19.6966 28.9574 19.6966 28.9574H19.6966H19.6966H19.6966H19.6966H19.6966H19.6966C19.6966 28.9574 19.6966 28.9574 19.6966 28.9574C19.6966 28.9574 19.6966 28.9574 19.6966 28.9574C19.6966 28.9574 19.6966 28.9574 19.6966 28.9574C19.6966 28.9574 19.6966 28.9574 19.6966 28.9574C19.6966 28.9574 19.6966 28.9574 19.6966 28.9574C19.6966 28.9574 19.6966 28.9574 19.6966 28.9574C19.6966 28.9574 19.6966 28.9574 19.6966 28.9574C19.6966 28.9574 19.6966 28.9574 19.6966 28.9574H19.6966H19.6965H19.6965H19.6965H19.6965C19.6965 28.9574 19.6965 28.9574 19.6965 28.9574C19.6965 28.9574 19.6965 28.9574 19.6965 28.9574C19.6965 28.9574 19.6965 28.9574 19.6965 28.9574C19.6965 28.9574 19.6965 28.9574 19.6965 28.9574C19.6965 28.9574 19.6965 28.9574 19.6965 28.9574C19.6965 28.9574 19.6965 28.9574 19.6965 28.9574C19.6965 28.9574 19.6965 28.9574 19.6965 28.9574H19.6965H19.6965H19.6965H19.6965C19.6965 28.9574 19.6965 28.9574 19.6965 28.9574C19.6965 28.9574 19.6965 28.9574 19.6965 28.9574C19.6965 28.9574 19.6965 28.9574 19.6965 28.9574C19.6965 28.9574 19.6965 28.9574 19.6965 28.9574C19.6965 28.9574 19.6965 28.9574 19.6965 28.9574C19.6965 28.9574 19.6965 28.9574 19.6965 28.9574H19.6965H19.6965H19.6965C19.6965 28.9574 19.6965 28.9574 19.6965 28.9574C19.6965 28.9574 19.6965 28.9574 19.6965 28.9574C19.6965 28.9574 19.6965 28.9574 19.6965 28.9574C19.6965 28.9574 19.6965 28.9574 19.6965 28.9574C19.6965 28.9574 19.6965 28.9574 19.6965 28.9574H19.6965H19.6965H19.6965H19.6965C19.6965 28.9574 19.6965 28.9574 19.6965 28.9574C19.6965 28.9574 19.6965 28.9574 19.6965 28.9574C19.6965 28.9574 19.6965 28.9574 19.6965 28.9574C19.6965 28.9574 19.6965 28.9574 19.6965 28.9574C19.6965 28.9574 19.6965 28.9574 19.6965 28.9574H19.6965H19.6965H19.6965C19.6965 28.9574 19.6965 28.9574 19.6965 28.9574C19.6965 28.9574 19.6965 28.9574 19.6965 28.9574C19.6965 28.9574 19.6965 28.9574 19.6965 28.9574C19.6965 28.9574 19.6965 28.9574 19.6965 28.9574H19.6965H19.6965H19.6964C19.6964 28.9574 19.6964 28.9574 19.6964 28.9574C19.6964 28.9574 19.6964 28.9574 19.6964 28.9574C19.6964 28.9574 19.6964 28.9574 19.6964 28.9574C19.6964 28.9574 19.6964 28.9574 19.6964 28.9574C19.6964 28.9574 19.6964 28.9574 19.6964 28.9574H19.6964H19.6964C19.6964 28.9574 19.6964 28.9574 19.6964 28.9574C19.6964 28.9574 19.6964 28.9574 19.6964 28.9574C19.6964 28.9574 19.6964 28.9574 19.6964 28.9574C19.6964 28.9574 19.6964 28.9574 19.6964 28.9574H19.6964H19.6964H19.6964C19.6964 28.9574 19.6964 28.9574 19.6964 28.9574C19.6964 28.9574 19.6964 28.9574 19.6964 28.9574C19.6964 28.9574 19.6964 28.9574 19.6964 28.9574C19.6964 28.9574 19.6964 28.9574 19.6964 28.9574H19.6964H19.6964H19.6964C19.6964 28.9574 19.6964 28.9574 19.6964 28.9574C19.6964 28.9574 19.6964 28.9574 19.6964 28.9574C19.6964 28.9574 19.6964 28.9574 19.6964 28.9574H19.6964H19.6964H19.6964C19.6964 28.9574 19.6964 28.9574 19.6964 28.9574C19.6964 28.9574 19.6964 28.9574 19.6964 28.9574C19.6964 28.9574 19.6964 28.9574 19.6964 28.9574C19.6964 28.9574 19.6964 28.9574 19.6964 28.9574H19.6964H19.6964C19.6964 28.9574 19.6964 28.9574 19.6964 28.9574C19.6964 28.9574 19.6964 28.9574 19.6964 28.9574C19.6964 28.9574 19.6964 28.9574 19.6964 28.9574C19.6964 28.9574 19.6964 28.9574 19.6964 28.9574H19.6964H19.6964C19.6964 28.9574 19.6964 28.9574 19.6964 28.9574C19.6964 28.9574 19.6964 28.9574 19.6964 28.9574C19.6964 28.9574 19.6964 28.9574 19.6964 28.9574C19.6964 28.9574 19.6964 28.9574 19.6964 28.9574H19.6964H19.6964C19.6963 28.9574 19.6963 28.9574 19.6963 28.9574C19.6963 28.9574 19.6963 28.9574 19.6963 28.9574C19.6963 28.9574 19.6963 28.9574 19.6963 28.9574H19.6963H19.6963H19.6963C19.6963 28.9574 19.6963 28.9574 19.6963 28.9574C19.6963 28.9574 19.6963 28.9574 19.6963 28.9574C19.6963 28.9574 19.6963 28.9574 19.6963 28.9574H19.6963H19.6963C19.6963 28.9574 19.6963 28.9574 19.6963 28.9574C19.6963 28.9574 19.6963 28.9574 19.6963 28.9574C19.6963 28.9574 19.6963 28.9574 19.6963 28.9574C19.6963 28.9574 19.6963 28.9574 19.6963 28.9574H19.6963H19.6963C19.6963 28.9574 19.6963 28.9574 19.6963 28.9574C19.6963 28.9574 19.6963 28.9574 19.6963 28.9574C19.6963 28.9574 19.6963 28.9574 19.6963 28.9574H19.6963H19.6963H19.6963C19.6963 28.9574 19.6963 28.9574 19.6963 28.9574C19.6963 28.9574 19.6963 28.9574 19.6963 28.9574C19.6963 28.9574 19.6963 28.9574 19.6963 28.9574H19.6963H19.6963C19.6963 28.9574 19.6963 28.9574 19.6963 28.9574C19.6963 28.9574 19.6963 28.9574 19.6963 28.9574C19.6963 28.9574 19.6963 28.9574 19.6963 28.9574H19.6963H19.6963C19.6963 28.9574 19.6963 28.9574 19.6963 28.9574C19.6963 28.9574 19.6963 28.9574 19.6963 28.9574C19.6963 28.9574 19.6963 28.9574 19.6963 28.9574C19.6963 28.9574 19.6963 28.9574 19.6963 28.9574H19.6963H19.6963C19.6963 28.9574 19.6963 28.9574 19.6963 28.9574C19.6963 28.9574 19.6963 28.9574 19.6963 28.9574C19.6963 28.9574 19.6963 28.9574 19.6963 28.9574H19.6963H19.6963C19.6962 28.9574 19.6962 28.9574 19.6962 28.9574C19.6962 28.9574 19.6962 28.9574 19.6962 28.9574C19.6962 28.9574 19.6962 28.9574 19.6962 28.9574H19.6962H19.6962H19.6962C19.6962 28.9574 19.6962 28.9574 19.6962 28.9574C19.6962 28.9574 19.6962 28.9574 19.6962 28.9574C19.6962 28.9574 19.6962 28.9574 19.6962 28.9574H19.6962H19.6962C19.6962 28.9574 19.6962 28.9574 19.6962 28.9574C19.6962 28.9574 19.6962 28.9574 19.6962 28.9574C19.6962 28.9574 19.6962 28.9574 19.6962 28.9574H19.6962H19.6962C19.6962 28.9574 19.6962 28.9574 19.6962 28.9574C19.6962 28.9574 19.6962 28.9574 19.6962 28.9574V26.9574ZM20.0817 28.8804C19.7151 29.0332 19.3351 29.1689 18.9404 29.2786L18.4046 27.3517C18.7087 27.2672 19.0104 27.1601 19.3123 27.0343L20.0817 28.8804ZM18.9417 29.2782C18.5285 29.3938 18.114 29.4744 17.7073 29.532L17.427 27.5517C17.7646 27.504 18.0907 27.4395 18.4033 27.3521L18.9417 29.2782ZM17.4507 27.5487C17.4478 27.549 17.4463 27.5492 17.4473 27.5491C17.4487 27.5489 17.4503 27.5487 17.4553 27.548C17.4626 27.547 17.4822 27.5442 17.504 27.5417L17.7317 29.5287C17.7365 29.5282 17.739 29.5278 17.7294 29.5291C17.726 29.5296 17.7191 29.5306 17.7121 29.5315C17.7046 29.5325 17.6948 29.5338 17.6836 29.5351L17.4507 27.5487ZM17.7514 29.5263C17.3127 29.5854 16.8704 29.6148 16.4234 29.6113L16.4391 27.6114C16.7875 27.6141 17.1353 27.5912 17.4843 27.5442L17.7514 29.5263ZM16.4226 29.6113C15.9672 29.6074 15.5181 29.5704 15.0819 29.5131L15.3424 27.5301C15.714 27.5789 16.0805 27.6083 16.4398 27.6114L16.4226 29.6113ZM15.0716 29.5117C14.4551 29.4242 13.8561 29.2857 13.2781 29.1206L13.8274 27.1975C14.3397 27.3439 14.8472 27.4598 15.3526 27.5315L15.0716 29.5117ZM13.2777 29.1205C12.6813 28.9499 12.1022 28.7382 11.5427 28.5003L12.3253 26.6597C12.8212 26.8706 13.3223 27.053 13.8278 27.1977L13.2777 29.1205ZM11.5368 28.4978C10.8604 28.205 10.2014 27.8663 9.56785 27.4775L10.6138 25.7728C11.1619 26.1091 11.7363 26.4048 12.3312 26.6623L11.5368 28.4978ZM9.56785 27.4775C8.92235 27.0814 8.30619 26.6451 7.71861 26.1882L8.94624 24.6093C9.48682 25.0296 10.0422 25.4221 10.6138 25.7729L9.56785 27.4775ZM7.71462 26.1851C7.2023 25.7826 6.705 25.3568 6.22792 24.9068L7.60023 23.4519C8.03079 23.858 8.48216 24.2447 8.95022 24.6124L7.71462 26.1851ZM7.43396 23.3251C7.7494 23.5171 8.07404 23.6971 8.40589 23.8658L7.49986 25.6488C7.12525 25.4584 6.75581 25.2537 6.39419 25.0336L7.43396 23.3251ZM8.40765 23.8667C8.77424 24.0539 9.15775 24.2233 9.55785 24.3871L8.80003 26.238C8.36909 26.0615 7.93084 25.8688 7.49811 25.6479L8.40765 23.8667ZM9.5576 24.387C9.96043 24.5518 10.3674 24.7018 10.7785 24.8348L10.1631 26.7377C9.70059 26.5882 9.24629 26.4205 8.80028 26.2381L9.5576 24.387ZM10.778 24.8346C11.2008 24.9711 11.631 25.0972 12.0654 25.2164L11.5364 27.1451C11.0802 27.02 10.6206 26.8855 10.1635 26.7379L10.778 24.8346ZM12.0645 25.2161C12.4828 25.3304 12.9046 25.4247 13.3312 25.4993L12.9866 27.4694C12.4986 27.384 12.0159 27.2761 11.5373 27.1454L12.0645 25.2161ZM13.3315 25.4993C14.173 25.6468 15.0411 25.7061 15.9231 25.7083L15.918 27.7083C14.9522 27.7059 13.9663 27.6411 12.9863 27.4693L13.3315 25.4993ZM15.9239 25.7083C16.361 25.7098 16.7987 25.6929 17.2365 25.659L17.391 27.653C16.9017 27.6909 16.4102 27.71 15.9172 27.7083L15.9239 25.7083ZM17.2364 25.659C17.6607 25.6261 18.0915 25.5664 18.5406 25.4957L18.8516 27.4714C18.3838 27.545 17.893 27.6141 17.391 27.653L17.2364 25.659ZM18.541 25.4956C18.9856 25.4258 19.4101 25.3524 19.8223 25.2577L20.2704 27.2068C19.7897 27.3173 19.3111 27.3992 18.8512 27.4714L18.541 25.4956ZM19.8211 25.2579C20.2325 25.1628 20.6337 25.0439 21.024 24.8982L21.7236 26.7719C21.2464 26.95 20.7616 27.0933 20.2716 27.2066L19.8211 25.2579ZM21.0246 24.898C21.7907 24.6125 22.5364 24.2409 23.2463 23.8069L24.2894 25.5133C23.4827 26.0065 22.622 26.4371 21.7229 26.7721L21.0246 24.898ZM23.2459 23.8071C23.9423 23.381 24.5972 22.8819 25.1896 22.3221L26.5632 23.7758C25.8681 24.4327 25.1023 25.016 24.2898 25.5131L23.2459 23.8071ZM25.1896 22.3221C25.7807 21.7636 26.3163 21.1352 26.7972 20.4593L28.4268 21.6187C27.8794 22.3882 27.2597 23.1177 26.5632 23.7758L25.1896 22.3221ZM26.7974 20.4589C27.2762 19.7866 27.6883 19.0717 28.0186 18.3224L29.8486 19.1293C29.4602 20.0103 28.9792 20.843 28.4266 21.6191L26.7974 20.4589ZM28.0189 18.3218C28.3519 17.5679 28.5983 16.7758 28.7636 15.9581L30.7239 16.3546C30.5318 17.3045 30.2435 18.2356 29.8484 19.13L28.0189 18.3218ZM28.7635 15.9588C29.1032 14.2737 29.0894 12.5356 28.6411 10.9153L30.5687 10.382C31.1116 12.3445 31.1172 14.4039 30.7241 16.354L28.7635 15.9588ZM28.6412 10.9156C28.4208 10.12 28.0958 9.34338 27.6971 8.598L29.4606 7.65463C29.9177 8.5091 30.303 9.42283 30.5686 10.3817L28.6412 10.9156ZM27.6968 8.59739C27.5006 8.23015 27.2912 7.87881 27.0627 7.5471L28.7099 6.4127C28.9883 6.81692 29.2361 7.23427 29.461 7.65525L27.6968 8.59739ZM27.0641 7.54902C26.8416 7.22763 26.5893 6.91765 26.3163 6.62059L27.7888 5.26722C28.1147 5.6218 28.4265 6.00327 28.7086 6.41078L27.0641 7.54902ZM26.3161 6.62038C26.0563 6.33757 25.7675 6.0707 25.4558 5.81184L26.7335 4.27321C27.0965 4.57468 27.4545 4.90327 27.789 5.26742L26.3161 6.62038ZM25.4571 5.81298C25.1367 5.54781 24.8012 5.30021 24.4528 5.07098L25.5521 3.40018C25.9604 3.66886 26.3546 3.95973 26.7321 4.27207L25.4571 5.81298ZM24.4522 5.0706C23.7522 4.60935 22.9939 4.22709 22.1925 3.89059L22.9669 2.04658C23.8493 2.41713 24.7236 2.8543 25.5527 3.40056L24.4522 5.0706ZM22.1926 3.89061C20.9878 3.38474 19.7122 3.03542 18.4087 2.8303L18.7196 0.854614C20.1685 1.08262 21.6011 1.47312 22.9669 2.04656L22.1926 3.89061ZM17.5762 1.99713C17.6379 2.39108 17.9188 2.59921 18.1096 2.67515L18.8493 0.81699C19.1283 0.928047 19.4765 1.20487 19.5521 1.68779L17.5762 1.99713ZM17.7693 2.45015C17.7618 2.44253 17.7832 2.46461 17.8073 2.48647C17.8334 2.51017 17.911 2.57923 18.0288 2.63862C18.1639 2.70673 18.289 2.73156 18.3781 2.74059C18.4158 2.74441 18.4455 2.74521 18.4584 2.74547C18.4656 2.74562 18.4713 2.74565 18.4741 2.74567C18.4757 2.74567 18.4769 2.74568 18.4776 2.74568C18.4779 2.74568 18.4782 2.74568 18.4784 2.74568C18.4785 2.74568 18.4785 2.74568 18.4786 2.74568C18.4786 2.74568 18.4786 2.74568 18.4786 2.74568C18.4787 2.74568 18.4787 2.74568 18.4787 2.74568V0.745678C18.4787 0.745678 18.4787 0.745678 18.4787 0.745678C18.4788 0.745678 18.4789 0.745678 18.479 0.745678C18.4791 0.745678 18.4794 0.745678 18.4798 0.745678C18.4805 0.745678 18.4818 0.74568 18.4833 0.745687C18.4862 0.745701 18.492 0.745739 18.4992 0.745886C18.5122 0.746151 18.542 0.746954 18.5797 0.750778C18.6689 0.759819 18.7942 0.78467 18.9293 0.852833C19.0472 0.912273 19.1249 0.981405 19.1511 1.00522C19.1663 1.01903 19.1778 1.03031 19.1822 1.03462C19.1848 1.03721 19.1869 1.03927 19.1879 1.04029C19.1884 1.04085 19.1889 1.0413 19.1891 1.04156C19.1893 1.04169 19.1894 1.0418 19.1894 1.04186C19.1895 1.04193 19.1896 1.04198 19.1896 1.04198L17.7693 2.45015ZM18.8803 0.829859C18.8801 0.829794 18.8777 0.828732 18.8728 0.826813L18.1386 2.68718C18.116 2.67823 18.095 2.66936 18.0771 2.6615L18.8803 0.829859ZM18.0731 2.65857C17.9063 2.57851 17.7344 2.4569 17.7084 2.43984L18.804 0.766672C18.8298 0.78355 18.8557 0.800976 18.8735 0.812857C18.8934 0.826204 18.9072 0.835335 18.9194 0.843159C18.9442 0.859121 18.9472 0.859674 18.9384 0.855417L18.0731 2.65857ZM17.7037 2.43675C17.6028 2.36991 17.5522 2.33481 17.4928 2.29906L18.5236 0.585157C18.6328 0.650856 18.7447 0.727346 18.8087 0.769762L17.7037 2.43675ZM17.4938 2.29967C17.4602 2.27953 17.4193 2.26007 17.3118 2.20995L18.1568 0.397217C18.2334 0.43294 18.3805 0.499323 18.5226 0.584539L17.4938 2.29967ZM17.3173 2.21249C17.2515 2.18229 17.1813 2.15499 17.1074 2.13088L17.7282 0.22966C17.8695 0.275787 18.0113 0.330437 18.1513 0.39467L17.3173 2.21249ZM17.1126 2.13257C16.9956 2.09507 16.8539 2.06745 16.6721 2.04293L16.9394 0.0608711C17.1684 0.0917606 17.443 0.138258 17.723 0.227972L17.1126 2.13257ZM16.6705 2.04272C16.4804 2.01677 16.2873 2.00333 16.088 2.00069L16.1144 0.000867844C16.3871 0.00447464 16.6621 0.0230331 16.941 0.0610847L16.6705 2.04272ZM16.0917 2.00074C16.0499 2.00034 16.0136 2 15.9782 2V0C16.0247 0 16.0705 0.000444412 16.1107 0.000825882L16.0917 2.00074ZM15.9782 2C15.6032 2 15.2198 2.02675 14.8278 2.07096L14.6037 0.0835609C15.0489 0.0333385 15.5097 0 15.9782 0V2Z" fill="#EFDCC2" mask="url(#path-1-outside-1_1070_35653)"/>
</svg>
